<?xml version="1.0" encoding="utf-8"?>
<!-- Generator: Adobe Illustrator 28.4.1, SVG Export Plug-In . SVG Version: 6.00 Build 0)  -->
<svg version="1.1" id="Layer_1" xmlns="http://www.w3.org/2000/svg" xmlns:xlink="http://www.w3.org/1999/xlink" x="0px" y="0px"
	 viewBox="0 0 1133.86 283.46" style="enable-background:new 0 0 1133.86 283.46;" xml:space="preserve">
<style type="text/css">
	.st0{display:none;}
	.st1{display:inline;}
	.st2{fill:#00647B;}
	.st3{fill:url(#SVGID_1_);}
	.st4{fill:url(#SVGID_00000155130253640731818080000005624852775230764182_);}
	.st5{fill:url(#SVGID_00000095329455066150750950000010350503422421756811_);}
	
		.st6{fill:none;stroke:url(#SVGID_00000169531067766837963750000008452142871777700264_);stroke-width:4.396;stroke-linecap:round;stroke-linejoin:round;stroke-miterlimit:10;}
	
		.st7{fill:none;stroke:url(#SVGID_00000171717893867218217850000000840012933038639242_);stroke-width:4.396;stroke-linecap:round;stroke-linejoin:round;stroke-miterlimit:10;}
	.st8{fill:url(#SVGID_00000173159917841329195810000017209847728004391841_);}
	.st9{fill:url(#SVGID_00000149340660556021264290000005479443080854565002_);}
	.st10{fill:url(#SVGID_00000066503008153586264770000002753525197720290952_);}
	.st11{fill:url(#SVGID_00000017508386953553846650000013778520627626610365_);}
	.st12{fill:url(#SVGID_00000034048576212734930120000003304961346685791382_);}
	.st13{fill:url(#SVGID_00000094587296751639719900000003215530544412983972_);}
	.st14{fill:url(#SVGID_00000047045226269381959280000009162102918533782959_);}
	.st15{fill:url(#SVGID_00000095332392025981855190000001009930786945215115_);}
	.st16{fill:url(#SVGID_00000138572558676115158210000000675083955043176379_);}
	.st17{fill:url(#SVGID_00000140724945651552494740000012262146089132716674_);}
	.st18{fill:url(#SVGID_00000076571774384793091820000007790073109009570189_);}
	.st19{fill:url(#SVGID_00000084495634286006501700000007117066716676772238_);}
	.st20{fill:url(#SVGID_00000047029703046089766630000018148123560172779442_);}
	.st21{fill:url(#SVGID_00000040534519878257834000000013163823207031069571_);}
	.st22{fill:url(#SVGID_00000146498416858747381200000007197018106152681891_);}
	.st23{fill:url(#SVGID_00000073720233472463853150000009954062294912959390_);}
	.st24{opacity:0.74;fill:none;stroke:#603913;stroke-width:3;stroke-miterlimit:10;}
	.st25{fill:#FFFFFF;}
	.st26{font-family:'CenturySchoolbook-Bold';}
	.st27{font-size:72px;}
</style>
<g>
	<g class="st0">
		<g class="st1">
			<path d="M41.94,274v8.17c0,1.59,0.1,2.6,0.29,3.01c0.2,0.41,0.54,0.74,1.04,0.99c0.5,0.25,1.42,0.37,2.75,0.37v0.8H31.04v-0.8
				c1.36,0,2.29-0.13,2.77-0.38c0.49-0.25,0.83-0.58,1.02-0.99c0.2-0.41,0.29-1.41,0.29-3v-19.13c0-1.59-0.1-2.6-0.29-3.01
				c-0.2-0.41-0.54-0.74-1.03-0.99c-0.49-0.25-1.41-0.37-2.76-0.37v-0.8h12.85c4.23,0,7.27,0.75,9.11,2.26
				c1.84,1.51,2.76,3.39,2.76,5.65c0,1.91-0.59,3.55-1.78,4.91c-1.19,1.36-2.83,2.29-4.91,2.78C47.66,273.83,45.28,274,41.94,274z
				 M41.94,259.57v12.74c0.48,0.03,0.84,0.04,1.09,0.04c1.77,0,3.13-0.53,4.09-1.58c0.96-1.05,1.43-2.68,1.43-4.88
				c0-2.19-0.48-3.79-1.43-4.8c-0.96-1.01-2.38-1.52-4.28-1.52H41.94z"/>
			<path d="M68.94,273.92v8.26c0,1.59,0.1,2.6,0.29,3.01c0.2,0.41,0.54,0.74,1.03,0.99c0.49,0.25,1.41,0.37,2.76,0.37v0.8H57.94
				v-0.8c1.36,0,2.29-0.13,2.77-0.38c0.49-0.25,0.83-0.58,1.02-0.99c0.2-0.41,0.29-1.41,0.29-3v-19.13c0-1.59-0.1-2.6-0.29-3.01
				c-0.2-0.41-0.54-0.74-1.03-0.99c-0.49-0.25-1.41-0.37-2.76-0.37v-0.8h13.7c3.57,0,6.17,0.25,7.83,0.74c1.65,0.49,3,1.4,4.04,2.73
				c1.04,1.33,1.57,2.88,1.57,4.66c0,2.17-0.78,3.97-2.35,5.39c-1,0.9-2.4,1.57-4.2,2.02l7.09,9.98c0.93,1.29,1.59,2.09,1.98,2.41
				c0.59,0.45,1.28,0.7,2.07,0.74v0.8h-9.28l-9.5-13.44H68.94z M68.94,259.46v12.91h1.24c2.01,0,3.52-0.18,4.52-0.55
				c1-0.37,1.79-1.04,2.36-2c0.57-0.96,0.86-2.22,0.86-3.77c0-2.25-0.53-3.91-1.58-4.98c-1.05-1.07-2.74-1.61-5.08-1.61H68.94z"/>
			<path d="M106.46,257.46c4.7-0.17,8.51,1.2,11.45,4.11c2.94,2.91,4.4,6.56,4.4,10.94c0,3.74-1.09,7.03-3.28,9.87
				c-2.9,3.77-6.99,5.65-12.28,5.65c-5.3,0-9.41-1.8-12.31-5.39c-2.29-2.84-3.44-6.21-3.44-10.11c0-4.38,1.49-8.03,4.47-10.95
				C98.45,258.66,102.11,257.29,106.46,257.46z M106.72,258.85c-2.7,0-4.75,1.38-6.15,4.13c-1.14,2.26-1.72,5.51-1.72,9.74
				c0,5.03,0.88,8.75,2.65,11.15c1.23,1.68,2.96,2.52,5.17,2.52c1.49,0,2.74-0.36,3.74-1.09c1.28-0.93,2.27-2.41,2.98-4.45
				c0.71-2.04,1.07-4.69,1.07-7.97c0-3.9-0.36-6.82-1.09-8.75c-0.73-1.93-1.65-3.3-2.77-4.1
				C109.48,259.25,108.19,258.85,106.72,258.85z"/>
			<path d="M145.12,277.31l8-19.44h12v0.8h-0.96c-0.87,0-1.57,0.15-2.09,0.46c-0.36,0.2-0.65,0.54-0.87,1.02
				c-0.16,0.35-0.24,1.25-0.24,2.72v19.44c0,1.51,0.08,2.45,0.24,2.83c0.16,0.38,0.49,0.71,0.98,0.99c0.49,0.28,1.15,0.42,1.98,0.42
				h0.96v0.8h-15.39v-0.8h0.96c0.87,0,1.57-0.15,2.09-0.46c0.36-0.2,0.65-0.55,0.87-1.04c0.16-0.35,0.24-1.26,0.24-2.74v-21.85
				l-11.3,26.89h-0.52l-11.48-26.7v20.76c0,1.45,0.04,2.34,0.11,2.67c0.19,0.72,0.6,1.32,1.23,1.77c0.63,0.46,1.62,0.68,2.97,0.68
				v0.8h-10.09v-0.8h0.3c0.65,0.01,1.26-0.09,1.83-0.32c0.57-0.22,0.99-0.52,1.28-0.9c0.29-0.38,0.51-0.91,0.67-1.59
				c0.03-0.16,0.04-0.9,0.04-2.22v-18.65c0-1.49-0.08-2.42-0.24-2.79c-0.16-0.37-0.49-0.7-0.98-0.98c-0.49-0.28-1.15-0.42-1.98-0.42
				h-0.93v-0.8h12.04L145.12,277.31z"/>
			<path d="M182.23,286.55v0.8h-15.41v-0.8h0.98c0.86,0,1.54-0.15,2.07-0.46c0.38-0.2,0.67-0.55,0.87-1.04
				c0.16-0.35,0.24-1.26,0.24-2.74v-19.39c0-1.51-0.08-2.45-0.24-2.83c-0.16-0.38-0.48-0.71-0.97-0.99
				c-0.49-0.28-1.14-0.42-1.97-0.42h-0.98v-0.8h15.41v0.8h-0.98c-0.86,0-1.54,0.15-2.07,0.46c-0.38,0.2-0.67,0.55-0.89,1.04
				c-0.16,0.35-0.24,1.26-0.24,2.74v19.39c0,1.51,0.08,2.45,0.25,2.83c0.17,0.38,0.49,0.71,0.98,0.99c0.49,0.28,1.14,0.42,1.97,0.42
				H182.23z"/>
			<path d="M194.34,257.87l14.54,18.28v-12.67c0-1.77-0.25-2.96-0.76-3.59c-0.7-0.84-1.86-1.25-3.5-1.22v-0.8h9.74v0.8
				c-1.25,0.16-2.08,0.37-2.51,0.62c-0.43,0.25-0.76,0.67-1,1.24c-0.24,0.57-0.36,1.55-0.36,2.95v24.55h-0.74l-19.94-24.55v18.74
				c0,1.7,0.39,2.84,1.16,3.44c0.78,0.59,1.66,0.89,2.66,0.89h0.7v0.8h-10.46v-0.8c1.62-0.01,2.75-0.35,3.39-1
				c0.64-0.65,0.96-1.76,0.96-3.33v-20.81l-0.63-0.78c-0.62-0.78-1.17-1.3-1.65-1.54c-0.48-0.25-1.17-0.38-2.07-0.41v-0.8H194.34z"
				/>
			<path d="M227.53,259.57v12h0.59c1.87,0,3.22-0.59,4.07-1.76c0.84-1.17,1.38-2.91,1.61-5.2h0.83v15.44h-0.83
				c-0.17-1.68-0.54-3.06-1.1-4.13c-0.56-1.07-1.21-1.79-1.95-2.16c-0.74-0.37-1.81-0.55-3.22-0.55v8.3c0,1.62,0.07,2.62,0.21,2.98
				c0.14,0.36,0.39,0.66,0.77,0.89c0.38,0.23,0.99,0.35,1.83,0.35h1.76c2.75,0,4.96-0.64,6.62-1.91c1.66-1.28,2.85-3.22,3.58-5.83
				h0.8l-1.33,9.37h-25.48v-0.8h0.98c0.86,0,1.54-0.15,2.07-0.46c0.38-0.2,0.67-0.55,0.87-1.04c0.16-0.35,0.24-1.26,0.24-2.74
				v-19.39c0-1.33-0.04-2.15-0.11-2.46c-0.14-0.51-0.41-0.9-0.8-1.17c-0.55-0.41-1.3-0.61-2.26-0.61h-0.98v-0.8h24.67v8.72h-0.83
				c-0.42-2.13-1.01-3.66-1.77-4.59c-0.76-0.93-1.84-1.61-3.23-2.04c-0.81-0.26-2.33-0.39-4.57-0.39H227.53z"/>
			<path d="M256.19,257.87l14.54,18.28v-12.67c0-1.77-0.25-2.96-0.76-3.59c-0.7-0.84-1.86-1.25-3.5-1.22v-0.8h9.74v0.8
				c-1.25,0.16-2.08,0.37-2.51,0.62c-0.43,0.25-0.76,0.67-1,1.24c-0.24,0.57-0.36,1.55-0.36,2.95v24.55h-0.74l-19.94-24.55v18.74
				c0,1.7,0.39,2.84,1.16,3.44c0.78,0.59,1.66,0.89,2.66,0.89h0.7v0.8h-10.46v-0.8c1.62-0.01,2.75-0.35,3.39-1
				c0.64-0.65,0.96-1.76,0.96-3.33v-20.81l-0.63-0.78c-0.62-0.78-1.17-1.3-1.65-1.54c-0.48-0.25-1.17-0.38-2.07-0.41v-0.8H256.19z"
				/>
			<path d="M305.34,257.87v7.98h-0.78c-0.46-1.84-0.98-3.16-1.54-3.97c-0.57-0.8-1.34-1.45-2.33-1.92
				c-0.55-0.26-1.51-0.39-2.89-0.39h-2.2v22.74c0,1.51,0.08,2.45,0.25,2.83c0.17,0.38,0.49,0.71,0.98,0.99
				c0.49,0.28,1.15,0.42,1.99,0.42h0.98v0.8h-15.44v-0.8h0.98c0.85,0,1.54-0.15,2.06-0.46c0.38-0.2,0.67-0.55,0.89-1.04
				c0.16-0.35,0.24-1.26,0.24-2.74v-22.74h-2.13c-1.99,0-3.43,0.42-4.33,1.26c-1.26,1.17-2.06,2.85-2.39,5.02h-0.83v-7.98H305.34z"
				/>
			<path d="M100.31,314.77l-1.11,10.35H73.02v-0.8H74c0.85,0,1.54-0.15,2.06-0.46c0.38-0.2,0.67-0.55,0.87-1.04
				c0.16-0.35,0.24-1.26,0.24-2.74v-19.39c0-1.51-0.08-2.45-0.24-2.83c-0.16-0.38-0.48-0.71-0.97-0.99
				c-0.49-0.28-1.14-0.42-1.97-0.42h-0.98v-0.8h15.72v0.8h-1.28c-0.85,0-1.54,0.15-2.07,0.46c-0.38,0.2-0.67,0.55-0.89,1.04
				c-0.16,0.35-0.24,1.26-0.24,2.74v18.78c0,1.51,0.09,2.47,0.26,2.88c0.17,0.41,0.51,0.72,1.02,0.92c0.36,0.13,1.24,0.2,2.63,0.2
				h2.46c1.57,0,2.87-0.28,3.91-0.83c1.04-0.55,1.95-1.42,2.71-2.61c0.76-1.19,1.48-2.94,2.16-5.26H100.31z"/>
			<path d="M114.61,322.11c-2.48,2.19-4.7,3.28-6.67,3.28c-1.16,0-2.12-0.38-2.89-1.14c-0.77-0.76-1.15-1.71-1.15-2.86
				c0-1.55,0.67-2.95,2-4.18c1.33-1.24,4.24-2.89,8.72-4.95v-2.04c0-1.54-0.08-2.5-0.25-2.9c-0.17-0.4-0.48-0.75-0.95-1.04
				c-0.46-0.3-0.99-0.45-1.57-0.45c-0.94,0-1.72,0.21-2.33,0.63c-0.38,0.26-0.57,0.57-0.57,0.91c0,0.3,0.2,0.68,0.61,1.13
				c0.55,0.62,0.83,1.22,0.83,1.8c0,0.71-0.26,1.32-0.79,1.82c-0.53,0.5-1.22,0.75-2.08,0.75c-0.91,0-1.68-0.27-2.29-0.83
				c-0.62-0.55-0.92-1.2-0.92-1.93c0-1.04,0.41-2.04,1.24-2.99c0.83-0.95,1.98-1.68,3.46-2.18c1.48-0.51,3.01-0.76,4.61-0.76
				c1.93,0,3.45,0.41,4.58,1.23c1.12,0.82,1.85,1.71,2.19,2.66c0.2,0.61,0.3,2.01,0.3,4.2v7.89c0,0.93,0.04,1.51,0.11,1.75
				c0.07,0.24,0.18,0.42,0.33,0.53c0.14,0.12,0.31,0.17,0.5,0.17c0.38,0,0.76-0.27,1.15-0.8l0.65,0.52
				c-0.72,1.07-1.47,1.85-2.25,2.34c-0.78,0.49-1.66,0.73-2.64,0.73c-1.16,0-2.07-0.27-2.72-0.81
				C115.16,324.04,114.76,323.22,114.61,322.11z M114.61,320.53v-6.8c-1.75,1.03-3.06,2.13-3.91,3.3c-0.57,0.78-0.85,1.57-0.85,2.37
				c0,0.67,0.24,1.25,0.72,1.76c0.36,0.39,0.87,0.59,1.52,0.59C112.82,321.74,113.66,321.34,114.61,320.53z"/>
			<path d="M145.81,325.72l-5.57-14.91l-5.46,14.91h-1.13l-5.41-14.74c-0.81-2.25-1.5-3.71-2.07-4.39c-0.36-0.46-0.91-0.8-1.65-1
				v-0.8h10.26v0.8c-0.7,0-1.17,0.1-1.43,0.3c-0.26,0.2-0.39,0.43-0.39,0.7c0,0.25,0.23,0.99,0.7,2.22l2.98,7.94l2.87-7.94
				l-0.22-0.52c-0.43-1.09-0.82-1.78-1.14-2.08c-0.33-0.3-0.83-0.5-1.51-0.62v-0.8h10.41v0.8c-0.81,0.04-1.33,0.16-1.54,0.34
				c-0.22,0.18-0.33,0.44-0.33,0.77c0,0.32,0.21,1.02,0.63,2.11l2.87,7.94l2.61-7.3c0.38-1.04,0.56-1.75,0.56-2.13
				c0-0.57-0.14-0.98-0.41-1.24c-0.28-0.26-0.81-0.42-1.61-0.48v-0.8h6.02v0.8c-0.67,0.09-1.2,0.32-1.59,0.71
				c-0.39,0.38-0.9,1.47-1.52,3.27l-5.7,16.15H145.81z"/>
			<path d="M179.68,297.33v12.11h0.85c1.3,0,2.37-0.2,3.2-0.59c0.83-0.39,1.53-1.05,2.1-1.98c0.57-0.93,0.95-2.18,1.12-3.76h0.76
				v14.8h-0.76c-0.28-2.8-1.03-4.64-2.25-5.53c-1.22-0.89-2.61-1.34-4.16-1.34h-0.85v9.02c0,1.51,0.08,2.45,0.25,2.83
				c0.17,0.38,0.49,0.71,0.98,0.99c0.49,0.28,1.14,0.42,1.97,0.42h0.98v0.8h-15.41v-0.8h0.98c0.86,0,1.54-0.15,2.07-0.46
				c0.38-0.2,0.67-0.55,0.87-1.04c0.16-0.35,0.24-1.26,0.24-2.74v-19.39c0-1.51-0.08-2.45-0.24-2.83c-0.16-0.38-0.48-0.71-0.97-0.99
				c-0.49-0.28-1.14-0.42-1.97-0.42h-0.98v-0.8h24.87v8.46h-0.89c-0.2-1.99-0.72-3.46-1.55-4.41c-0.83-0.96-2.04-1.63-3.62-2.02
				c-0.87-0.22-2.48-0.33-4.83-0.33H179.68z"/>
			<path d="M204.08,304.79v16.11c0,1.43,0.17,2.35,0.5,2.75c0.33,0.4,0.99,0.63,1.96,0.69v0.78h-10.98v-0.78
				c0.9-0.03,1.57-0.29,2-0.78c0.29-0.33,0.43-1.22,0.43-2.65v-11.87c0-1.43-0.17-2.35-0.5-2.75c-0.33-0.4-0.98-0.63-1.93-0.69v-0.8
				H204.08z M201.03,294.94c0.94,0,1.74,0.33,2.39,0.99c0.65,0.66,0.98,1.45,0.98,2.38s-0.33,1.72-0.99,2.37
				c-0.66,0.65-1.45,0.98-2.38,0.98c-0.93,0-1.72-0.33-2.37-0.98c-0.65-0.65-0.98-1.44-0.98-2.37s0.33-1.72,0.98-2.38
				C199.32,295.27,200.11,294.94,201.03,294.94z"/>
			<path d="M216.95,304.79v4.61c1.35-2.1,2.53-3.5,3.54-4.18c1.01-0.69,1.99-1.03,2.94-1.03c0.81,0,1.46,0.25,1.95,0.75
				c0.49,0.5,0.73,1.21,0.73,2.12c0,0.97-0.24,1.72-0.71,2.26c-0.47,0.54-1.04,0.8-1.71,0.8c-0.77,0-1.43-0.25-2-0.74
				c-0.57-0.49-0.9-0.77-1-0.83c-0.15-0.09-0.31-0.13-0.5-0.13c-0.42,0-0.82,0.16-1.2,0.48c-0.59,0.49-1.04,1.2-1.35,2.11
				c-0.46,1.41-0.7,2.96-0.7,4.65v4.67l0.02,1.22c0,0.83,0.05,1.36,0.15,1.59c0.17,0.39,0.43,0.68,0.77,0.86
				c0.34,0.18,0.92,0.29,1.73,0.34v0.78h-10.98v-0.78c0.88-0.07,1.48-0.32,1.79-0.73c0.31-0.41,0.47-1.5,0.47-3.27v-11.24
				c0-1.16-0.06-1.9-0.17-2.22c-0.15-0.41-0.36-0.7-0.63-0.89c-0.28-0.19-0.76-0.32-1.46-0.39v-0.8H216.95z"/>
			<path d="M236.71,304.79v2.67c1.12-1.22,2.15-2.07,3.1-2.55c0.95-0.49,1.99-0.73,3.12-0.73c1.3,0,2.4,0.3,3.28,0.91
				c0.88,0.61,1.57,1.54,2.04,2.78c1.16-1.3,2.27-2.25,3.34-2.83c1.07-0.58,2.18-0.87,3.34-0.87c1.41,0,2.53,0.32,3.36,0.97
				c0.83,0.65,1.41,1.46,1.74,2.46c0.33,0.99,0.49,2.58,0.49,4.75v8.33c0,1.57,0.14,2.54,0.42,2.91c0.28,0.38,0.87,0.62,1.77,0.74
				v0.78h-10.5v-0.78c0.83-0.07,1.43-0.39,1.83-0.96c0.26-0.39,0.39-1.29,0.39-2.7v-8.74c0-1.81-0.07-2.96-0.22-3.46
				c-0.14-0.49-0.37-0.86-0.68-1.1c-0.31-0.24-0.68-0.36-1.1-0.36c-0.62,0-1.25,0.23-1.89,0.68c-0.64,0.46-1.28,1.14-1.93,2.05
				v10.91c0,1.46,0.12,2.38,0.37,2.76c0.33,0.54,0.97,0.83,1.91,0.89v0.78h-10.52v-0.78c0.57-0.03,1.01-0.17,1.34-0.42
				c0.33-0.25,0.54-0.56,0.65-0.91c0.11-0.35,0.16-1.13,0.16-2.32v-8.74c0-1.84-0.07-2.99-0.22-3.46c-0.15-0.46-0.39-0.83-0.73-1.09
				c-0.34-0.26-0.71-0.39-1.1-0.39c-0.58,0-1.11,0.15-1.59,0.46c-0.68,0.45-1.41,1.22-2.17,2.3v10.91c0,1.44,0.14,2.38,0.42,2.84
				c0.28,0.46,0.87,0.73,1.77,0.82v0.78h-10.48v-0.78c0.86-0.09,1.46-0.36,1.83-0.83c0.25-0.32,0.37-1.26,0.37-2.83V309.2
				c0-1.54-0.14-2.49-0.42-2.87c-0.28-0.38-0.87-0.62-1.77-0.74v-0.8H236.71z"/>
		</g>
		<g class="st1">
			<path class="st2" d="M41.94,274v8.17c0,1.59,0.1,2.6,0.29,3.01c0.2,0.41,0.54,0.74,1.04,0.99c0.5,0.25,1.42,0.37,2.75,0.37v0.8
				H31.04v-0.8c1.36,0,2.29-0.13,2.77-0.38c0.49-0.25,0.83-0.58,1.02-0.99c0.2-0.41,0.29-1.41,0.29-3v-19.13
				c0-1.59-0.1-2.6-0.29-3.01c-0.2-0.41-0.54-0.74-1.03-0.99c-0.49-0.25-1.41-0.37-2.76-0.37v-0.8h12.85c4.23,0,7.27,0.75,9.11,2.26
				c1.84,1.51,2.76,3.39,2.76,5.65c0,1.91-0.59,3.55-1.78,4.91c-1.19,1.36-2.83,2.29-4.91,2.78C47.66,273.83,45.28,274,41.94,274z
				 M41.94,259.57v12.74c0.48,0.03,0.84,0.04,1.09,0.04c1.77,0,3.13-0.53,4.09-1.58c0.96-1.05,1.43-2.68,1.43-4.88
				c0-2.19-0.48-3.79-1.43-4.8c-0.96-1.01-2.38-1.52-4.28-1.52H41.94z"/>
			<path class="st2" d="M68.94,273.92v8.26c0,1.59,0.1,2.6,0.29,3.01c0.2,0.41,0.54,0.74,1.03,0.99c0.49,0.25,1.41,0.37,2.76,0.37
				v0.8H57.94v-0.8c1.36,0,2.29-0.13,2.77-0.38c0.49-0.25,0.83-0.58,1.02-0.99c0.2-0.41,0.29-1.41,0.29-3v-19.13
				c0-1.59-0.1-2.6-0.29-3.01c-0.2-0.41-0.54-0.74-1.03-0.99c-0.49-0.25-1.41-0.37-2.76-0.37v-0.8h13.7c3.57,0,6.17,0.25,7.83,0.74
				c1.65,0.49,3,1.4,4.04,2.73c1.04,1.33,1.57,2.88,1.57,4.66c0,2.17-0.78,3.97-2.35,5.39c-1,0.9-2.4,1.57-4.2,2.02l7.09,9.98
				c0.93,1.29,1.59,2.09,1.98,2.41c0.59,0.45,1.28,0.7,2.07,0.74v0.8h-9.28l-9.5-13.44H68.94z M68.94,259.46v12.91h1.24
				c2.01,0,3.52-0.18,4.52-0.55c1-0.37,1.79-1.04,2.36-2c0.57-0.96,0.86-2.22,0.86-3.77c0-2.25-0.53-3.91-1.58-4.98
				c-1.05-1.07-2.74-1.61-5.08-1.61H68.94z"/>
			<path class="st2" d="M106.46,257.46c4.7-0.17,8.51,1.2,11.45,4.11c2.94,2.91,4.4,6.56,4.4,10.94c0,3.74-1.09,7.03-3.28,9.87
				c-2.9,3.77-6.99,5.65-12.28,5.65c-5.3,0-9.41-1.8-12.31-5.39c-2.29-2.84-3.44-6.21-3.44-10.11c0-4.38,1.49-8.03,4.47-10.95
				C98.45,258.66,102.11,257.29,106.46,257.46z M106.72,258.85c-2.7,0-4.75,1.38-6.15,4.13c-1.14,2.26-1.72,5.51-1.72,9.74
				c0,5.03,0.88,8.75,2.65,11.15c1.23,1.68,2.96,2.52,5.17,2.52c1.49,0,2.74-0.36,3.74-1.09c1.28-0.93,2.27-2.41,2.98-4.45
				c0.71-2.04,1.07-4.69,1.07-7.97c0-3.9-0.36-6.82-1.09-8.75c-0.73-1.93-1.65-3.3-2.77-4.1
				C109.48,259.25,108.19,258.85,106.72,258.85z"/>
			<path class="st2" d="M145.12,277.31l8-19.44h12v0.8h-0.96c-0.87,0-1.57,0.15-2.09,0.46c-0.36,0.2-0.65,0.54-0.87,1.02
				c-0.16,0.35-0.24,1.25-0.24,2.72v19.44c0,1.51,0.08,2.45,0.24,2.83c0.16,0.38,0.49,0.71,0.98,0.99c0.49,0.28,1.15,0.42,1.98,0.42
				h0.96v0.8h-15.39v-0.8h0.96c0.87,0,1.57-0.15,2.09-0.46c0.36-0.2,0.65-0.55,0.87-1.04c0.16-0.35,0.24-1.26,0.24-2.74v-21.85
				l-11.3,26.89h-0.52l-11.48-26.7v20.76c0,1.45,0.04,2.34,0.11,2.67c0.19,0.72,0.6,1.32,1.23,1.77c0.63,0.46,1.62,0.68,2.97,0.68
				v0.8h-10.09v-0.8h0.3c0.65,0.01,1.26-0.09,1.83-0.32c0.57-0.22,0.99-0.52,1.28-0.9c0.29-0.38,0.51-0.91,0.67-1.59
				c0.03-0.16,0.04-0.9,0.04-2.22v-18.65c0-1.49-0.08-2.42-0.24-2.79c-0.16-0.37-0.49-0.7-0.98-0.98c-0.49-0.28-1.15-0.42-1.98-0.42
				h-0.93v-0.8h12.04L145.12,277.31z"/>
			<path class="st2" d="M182.23,286.55v0.8h-15.41v-0.8h0.98c0.86,0,1.54-0.15,2.07-0.46c0.38-0.2,0.67-0.55,0.87-1.04
				c0.16-0.35,0.24-1.26,0.24-2.74v-19.39c0-1.51-0.08-2.45-0.24-2.83c-0.16-0.38-0.48-0.71-0.97-0.99
				c-0.49-0.28-1.14-0.42-1.97-0.42h-0.98v-0.8h15.41v0.8h-0.98c-0.86,0-1.54,0.15-2.07,0.46c-0.38,0.2-0.67,0.55-0.89,1.04
				c-0.16,0.35-0.24,1.26-0.24,2.74v19.39c0,1.51,0.08,2.45,0.25,2.83c0.17,0.38,0.49,0.71,0.98,0.99c0.49,0.28,1.14,0.42,1.97,0.42
				H182.23z"/>
			<path class="st2" d="M194.34,257.87l14.54,18.28v-12.67c0-1.77-0.25-2.96-0.76-3.59c-0.7-0.84-1.86-1.25-3.5-1.22v-0.8h9.74v0.8
				c-1.25,0.16-2.08,0.37-2.51,0.62c-0.43,0.25-0.76,0.67-1,1.24c-0.24,0.57-0.36,1.55-0.36,2.95v24.55h-0.74l-19.94-24.55v18.74
				c0,1.7,0.39,2.84,1.16,3.44c0.78,0.59,1.66,0.89,2.66,0.89h0.7v0.8h-10.46v-0.8c1.62-0.01,2.75-0.35,3.39-1
				c0.64-0.65,0.96-1.76,0.96-3.33v-20.81l-0.63-0.78c-0.62-0.78-1.17-1.3-1.65-1.54c-0.48-0.25-1.17-0.38-2.07-0.41v-0.8H194.34z"
				/>
			<path class="st2" d="M227.53,259.57v12h0.59c1.87,0,3.22-0.59,4.07-1.76c0.84-1.17,1.38-2.91,1.61-5.2h0.83v15.44h-0.83
				c-0.17-1.68-0.54-3.06-1.1-4.13c-0.56-1.07-1.21-1.79-1.95-2.16c-0.74-0.37-1.81-0.55-3.22-0.55v8.3c0,1.62,0.07,2.62,0.21,2.98
				c0.14,0.36,0.39,0.66,0.77,0.89c0.38,0.23,0.99,0.35,1.83,0.35h1.76c2.75,0,4.96-0.64,6.62-1.91c1.66-1.28,2.85-3.22,3.58-5.83
				h0.8l-1.33,9.37h-25.48v-0.8h0.98c0.86,0,1.54-0.15,2.07-0.46c0.38-0.2,0.67-0.55,0.87-1.04c0.16-0.35,0.24-1.26,0.24-2.74
				v-19.39c0-1.33-0.04-2.15-0.11-2.46c-0.14-0.51-0.41-0.9-0.8-1.17c-0.55-0.41-1.3-0.61-2.26-0.61h-0.98v-0.8h24.67v8.72h-0.83
				c-0.42-2.13-1.01-3.66-1.77-4.59c-0.76-0.93-1.84-1.61-3.23-2.04c-0.81-0.26-2.33-0.39-4.57-0.39H227.53z"/>
			<path class="st2" d="M256.19,257.87l14.54,18.28v-12.67c0-1.77-0.25-2.96-0.76-3.59c-0.7-0.84-1.86-1.25-3.5-1.22v-0.8h9.74v0.8
				c-1.25,0.16-2.08,0.37-2.51,0.62c-0.43,0.25-0.76,0.67-1,1.24c-0.24,0.57-0.36,1.55-0.36,2.95v24.55h-0.74l-19.94-24.55v18.74
				c0,1.7,0.39,2.84,1.16,3.44c0.78,0.59,1.66,0.89,2.66,0.89h0.7v0.8h-10.46v-0.8c1.62-0.01,2.75-0.35,3.39-1
				c0.64-0.65,0.96-1.76,0.96-3.33v-20.81l-0.63-0.78c-0.62-0.78-1.17-1.3-1.65-1.54c-0.48-0.25-1.17-0.38-2.07-0.41v-0.8H256.19z"
				/>
			<path class="st2" d="M305.34,257.87v7.98h-0.78c-0.46-1.84-0.98-3.16-1.54-3.97c-0.57-0.8-1.34-1.45-2.33-1.92
				c-0.55-0.26-1.51-0.39-2.89-0.39h-2.2v22.74c0,1.51,0.08,2.45,0.25,2.83c0.17,0.38,0.49,0.71,0.98,0.99
				c0.49,0.28,1.15,0.42,1.99,0.42h0.98v0.8h-15.44v-0.8h0.98c0.85,0,1.54-0.15,2.06-0.46c0.38-0.2,0.67-0.55,0.89-1.04
				c0.16-0.35,0.24-1.26,0.24-2.74v-22.74h-2.13c-1.99,0-3.43,0.42-4.33,1.26c-1.26,1.17-2.06,2.85-2.39,5.02h-0.83v-7.98H305.34z"
				/>
			<path class="st2" d="M100.31,314.77l-1.11,10.35H73.02v-0.8H74c0.85,0,1.54-0.15,2.06-0.46c0.38-0.2,0.67-0.55,0.87-1.04
				c0.16-0.35,0.24-1.26,0.24-2.74v-19.39c0-1.51-0.08-2.45-0.24-2.83c-0.16-0.38-0.48-0.71-0.97-0.99
				c-0.49-0.28-1.14-0.42-1.97-0.42h-0.98v-0.8h15.72v0.8h-1.28c-0.85,0-1.54,0.15-2.07,0.46c-0.38,0.2-0.67,0.55-0.89,1.04
				c-0.16,0.35-0.24,1.26-0.24,2.74v18.78c0,1.51,0.09,2.47,0.26,2.88c0.17,0.41,0.51,0.72,1.02,0.92c0.36,0.13,1.24,0.2,2.63,0.2
				h2.46c1.57,0,2.87-0.28,3.91-0.83c1.04-0.55,1.95-1.42,2.71-2.61c0.76-1.19,1.48-2.94,2.16-5.26H100.31z"/>
			<path class="st2" d="M114.61,322.11c-2.48,2.19-4.7,3.28-6.67,3.28c-1.16,0-2.12-0.38-2.89-1.14c-0.77-0.76-1.15-1.71-1.15-2.86
				c0-1.55,0.67-2.95,2-4.18c1.33-1.24,4.24-2.89,8.72-4.95v-2.04c0-1.54-0.08-2.5-0.25-2.9c-0.17-0.4-0.48-0.75-0.95-1.04
				c-0.46-0.3-0.99-0.45-1.57-0.45c-0.94,0-1.72,0.21-2.33,0.63c-0.38,0.26-0.57,0.57-0.57,0.91c0,0.3,0.2,0.68,0.61,1.13
				c0.55,0.62,0.83,1.22,0.83,1.8c0,0.71-0.26,1.32-0.79,1.82c-0.53,0.5-1.22,0.75-2.08,0.75c-0.91,0-1.68-0.27-2.29-0.83
				c-0.62-0.55-0.92-1.2-0.92-1.93c0-1.04,0.41-2.04,1.24-2.99c0.83-0.95,1.98-1.68,3.46-2.18c1.48-0.51,3.01-0.76,4.61-0.76
				c1.93,0,3.45,0.41,4.58,1.23c1.12,0.82,1.85,1.71,2.19,2.66c0.2,0.61,0.3,2.01,0.3,4.2v7.89c0,0.93,0.04,1.51,0.11,1.75
				c0.07,0.24,0.18,0.42,0.33,0.53c0.14,0.12,0.31,0.17,0.5,0.17c0.38,0,0.76-0.27,1.15-0.8l0.65,0.52
				c-0.72,1.07-1.47,1.85-2.25,2.34c-0.78,0.49-1.66,0.73-2.64,0.73c-1.16,0-2.07-0.27-2.72-0.81
				C115.16,324.04,114.76,323.22,114.61,322.11z M114.61,320.53v-6.8c-1.75,1.03-3.06,2.13-3.91,3.3c-0.57,0.78-0.85,1.57-0.85,2.37
				c0,0.67,0.24,1.25,0.72,1.76c0.36,0.39,0.87,0.59,1.52,0.59C112.82,321.74,113.66,321.34,114.61,320.53z"/>
			<path class="st2" d="M145.81,325.72l-5.57-14.91l-5.46,14.91h-1.13l-5.41-14.74c-0.81-2.25-1.5-3.71-2.07-4.39
				c-0.36-0.46-0.91-0.8-1.65-1v-0.8h10.26v0.8c-0.7,0-1.17,0.1-1.43,0.3c-0.26,0.2-0.39,0.43-0.39,0.7c0,0.25,0.23,0.99,0.7,2.22
				l2.98,7.94l2.87-7.94l-0.22-0.52c-0.43-1.09-0.82-1.78-1.14-2.08c-0.33-0.3-0.83-0.5-1.51-0.62v-0.8h10.41v0.8
				c-0.81,0.04-1.33,0.16-1.54,0.34c-0.22,0.18-0.33,0.44-0.33,0.77c0,0.32,0.21,1.02,0.63,2.11l2.87,7.94l2.61-7.3
				c0.38-1.04,0.56-1.75,0.56-2.13c0-0.57-0.14-0.98-0.41-1.24c-0.28-0.26-0.81-0.42-1.61-0.48v-0.8h6.02v0.8
				c-0.67,0.09-1.2,0.32-1.59,0.71c-0.39,0.38-0.9,1.47-1.52,3.27l-5.7,16.15H145.81z"/>
			<path class="st2" d="M179.68,297.33v12.11h0.85c1.3,0,2.37-0.2,3.2-0.59c0.83-0.39,1.53-1.05,2.1-1.98
				c0.57-0.93,0.95-2.18,1.12-3.76h0.76v14.8h-0.76c-0.28-2.8-1.03-4.64-2.25-5.53c-1.22-0.89-2.61-1.34-4.16-1.34h-0.85v9.02
				c0,1.51,0.08,2.45,0.25,2.83c0.17,0.38,0.49,0.71,0.98,0.99c0.49,0.28,1.14,0.42,1.97,0.42h0.98v0.8h-15.41v-0.8h0.98
				c0.86,0,1.54-0.15,2.07-0.46c0.38-0.2,0.67-0.55,0.87-1.04c0.16-0.35,0.24-1.26,0.24-2.74v-19.39c0-1.51-0.08-2.45-0.24-2.83
				c-0.16-0.38-0.48-0.71-0.97-0.99c-0.49-0.28-1.14-0.42-1.97-0.42h-0.98v-0.8h24.87v8.46h-0.89c-0.2-1.99-0.72-3.46-1.55-4.41
				c-0.83-0.96-2.04-1.63-3.62-2.02c-0.87-0.22-2.48-0.33-4.83-0.33H179.68z"/>
			<path class="st2" d="M204.08,304.79v16.11c0,1.43,0.17,2.35,0.5,2.75c0.33,0.4,0.99,0.63,1.96,0.69v0.78h-10.98v-0.78
				c0.9-0.03,1.57-0.29,2-0.78c0.29-0.33,0.43-1.22,0.43-2.65v-11.87c0-1.43-0.17-2.35-0.5-2.75c-0.33-0.4-0.98-0.63-1.93-0.69v-0.8
				H204.08z M201.03,294.94c0.94,0,1.74,0.33,2.39,0.99c0.65,0.66,0.98,1.45,0.98,2.38s-0.33,1.72-0.99,2.37
				c-0.66,0.65-1.45,0.98-2.38,0.98c-0.93,0-1.72-0.33-2.37-0.98c-0.65-0.65-0.98-1.44-0.98-2.37s0.33-1.72,0.98-2.38
				C199.32,295.27,200.11,294.94,201.03,294.94z"/>
			<path class="st2" d="M216.95,304.79v4.61c1.35-2.1,2.53-3.5,3.54-4.18c1.01-0.69,1.99-1.03,2.94-1.03c0.81,0,1.46,0.25,1.95,0.75
				c0.49,0.5,0.73,1.21,0.73,2.12c0,0.97-0.24,1.72-0.71,2.26c-0.47,0.54-1.04,0.8-1.71,0.8c-0.77,0-1.43-0.25-2-0.74
				c-0.57-0.49-0.9-0.77-1-0.83c-0.15-0.09-0.31-0.13-0.5-0.13c-0.42,0-0.82,0.16-1.2,0.48c-0.59,0.49-1.04,1.2-1.35,2.11
				c-0.46,1.41-0.7,2.96-0.7,4.65v4.67l0.02,1.22c0,0.83,0.05,1.36,0.15,1.59c0.17,0.39,0.43,0.68,0.77,0.86
				c0.34,0.18,0.92,0.29,1.73,0.34v0.78h-10.98v-0.78c0.88-0.07,1.48-0.32,1.79-0.73c0.31-0.41,0.47-1.5,0.47-3.27v-11.24
				c0-1.16-0.06-1.9-0.17-2.22c-0.15-0.41-0.36-0.7-0.63-0.89c-0.28-0.19-0.76-0.32-1.46-0.39v-0.8H216.95z"/>
			<path class="st2" d="M236.71,304.79v2.67c1.12-1.22,2.15-2.07,3.1-2.55c0.95-0.49,1.99-0.73,3.12-0.73c1.3,0,2.4,0.3,3.28,0.91
				c0.88,0.61,1.57,1.54,2.04,2.78c1.16-1.3,2.27-2.25,3.34-2.83c1.07-0.58,2.18-0.87,3.34-0.87c1.41,0,2.53,0.32,3.36,0.97
				c0.83,0.65,1.41,1.46,1.74,2.46c0.33,0.99,0.49,2.58,0.49,4.75v8.33c0,1.57,0.14,2.54,0.42,2.91c0.28,0.38,0.87,0.62,1.77,0.74
				v0.78h-10.5v-0.78c0.83-0.07,1.43-0.39,1.83-0.96c0.26-0.39,0.39-1.29,0.39-2.7v-8.74c0-1.81-0.07-2.96-0.22-3.46
				c-0.14-0.49-0.37-0.86-0.68-1.1c-0.31-0.24-0.68-0.36-1.1-0.36c-0.62,0-1.25,0.23-1.89,0.68c-0.64,0.46-1.28,1.14-1.93,2.05
				v10.91c0,1.46,0.12,2.38,0.37,2.76c0.33,0.54,0.97,0.83,1.91,0.89v0.78h-10.52v-0.78c0.57-0.03,1.01-0.17,1.34-0.42
				c0.33-0.25,0.54-0.56,0.65-0.91c0.11-0.35,0.16-1.13,0.16-2.32v-8.74c0-1.84-0.07-2.99-0.22-3.46c-0.15-0.46-0.39-0.83-0.73-1.09
				c-0.34-0.26-0.71-0.39-1.1-0.39c-0.58,0-1.11,0.15-1.59,0.46c-0.68,0.45-1.41,1.22-2.17,2.3v10.91c0,1.44,0.14,2.38,0.42,2.84
				c0.28,0.46,0.87,0.73,1.77,0.82v0.78h-10.48v-0.78c0.86-0.09,1.46-0.36,1.83-0.83c0.25-0.32,0.37-1.26,0.37-2.83V309.2
				c0-1.54-0.14-2.49-0.42-2.87c-0.28-0.38-0.87-0.62-1.77-0.74v-0.8H236.71z"/>
		</g>
	</g>
	<g>
		<linearGradient id="SVGID_1_" gradientUnits="userSpaceOnUse" x1="107.284" y1="170.9391" x2="143.8273" y2="170.9391">
			<stop  offset="0" style="stop-color:#957444"/>
			<stop  offset="1" style="stop-color:#ECB371"/>
		</linearGradient>
		<path class="st3" d="M139.75,152.49c-2.72-2.23-7.21-3.34-13.47-3.34h-19v1.19c1.99,0,3.35,0.18,4.08,0.55
			c0.73,0.37,1.24,0.85,1.53,1.46c0.29,0.61,0.43,2.09,0.43,4.45v28.28c0,2.35-0.15,3.83-0.43,4.43c-0.29,0.6-0.79,1.09-1.51,1.46
			c-0.72,0.38-2.08,0.56-4.1,0.56v1.19h22.14v-1.19c-1.97,0-3.33-0.18-4.06-0.55c-0.74-0.36-1.25-0.85-1.54-1.46
			c-0.29-0.61-0.43-2.09-0.43-4.45V173c4.95,0,8.46-0.26,10.54-0.77c3.09-0.73,5.51-2.1,7.27-4.11c1.76-2.01,2.63-4.44,2.63-7.27
			C143.83,157.51,142.47,154.72,139.75,152.49z M131.04,168.22c-1.42,1.55-3.43,2.33-6.04,2.33c-0.37,0-0.9-0.02-1.61-0.07v-18.83
			h1.32c2.81,0,4.92,0.75,6.33,2.25c1.41,1.5,2.12,3.87,2.12,7.1C133.16,164.27,132.45,166.67,131.04,168.22z"/>
		
			<linearGradient id="SVGID_00000065754602191898167170000001310091254705238974_" gradientUnits="userSpaceOnUse" x1="191.2039" y1="170.9399" x2="227.9678" y2="170.9399">
			<stop  offset="0" style="stop-color:#957444"/>
			<stop  offset="1" style="stop-color:#ECB371"/>
		</linearGradient>
		<path style="fill:url(#SVGID_00000065754602191898167170000001310091254705238974_);" d="M191.2,149.15v1.18h1.45
			c1.22,0,2.19,0.21,2.91,0.63c0.72,0.42,1.2,0.9,1.43,1.46c0.23,0.56,0.35,1.95,0.35,4.18v28.66c0,1.48-0.05,2.57-0.16,3.28v4.17
			h16.81v-1.19h-1.45c-1.22,0-2.19-0.21-2.91-0.63c-0.72-0.42-1.2-0.9-1.45-1.46c-0.25-0.56-0.37-1.95-0.37-4.18v-13.34h1.25
			c2.29,0,4.34,0.66,6.15,1.98c1.81,1.32,2.92,4.04,3.33,8.18h1.12V160.2h-1.12c-0.26,2.34-0.81,4.19-1.65,5.56
			c-0.85,1.37-1.88,2.35-3.1,2.93c-1.22,0.57-2.8,0.87-4.72,0.87h-1.25v-17.9h4.04c3.48,0,5.86,0.16,7.14,0.48
			c2.34,0.58,4.12,1.58,5.35,2.99c1.23,1.41,2,3.59,2.3,6.52h1.32v-12.5H191.2z"/>
		<g>
			
				<linearGradient id="SVGID_00000002381805955706620140000008649096848901434768_" gradientUnits="userSpaceOnUse" x1="166.4095" y1="84.6036" x2="168.0438" y2="193.1215">
				<stop  offset="0" style="stop-color:#DAB077"/>
				<stop  offset="0.1361" style="stop-color:#D2AA72"/>
				<stop  offset="0.3096" style="stop-color:#BF9A64"/>
				<stop  offset="0.4296" style="stop-color:#AD8B57"/>
				<stop  offset="0.5818" style="stop-color:#A68654"/>
				<stop  offset="0.7758" style="stop-color:#93784B"/>
				<stop  offset="0.8229" style="stop-color:#8D7448"/>
			</linearGradient>
			<path style="fill:url(#SVGID_00000002381805955706620140000008649096848901434768_);" d="M286.15,164.29h-4.9
				c-0.01-0.02,0-0.03-0.01-0.04l-16.42-43.48c1.21,0.02,2.35-0.04,3.38-0.2c11.43-0.37,18.88-13.02,10.26-21.82
				c-1.87-2.32-10.74-6.19-11.3-1.35c-0.04,1.28,0.97,2.36,2.26,2.4c4.11,0.04,7.58,3.9,7.21,7.91
				c-6.07,22.81-59.88-24.54-106.51,1.09v-4.25c4.4-1.11,7.66-5.07,7.66-9.81c0-5.6-4.53-10.13-10.13-10.13
				c-5.59,0-10.13,4.53-10.13,10.13c0,4.74,3.26,8.71,7.66,9.81v4.29c-6.38-3.47-13.35-5.85-20.4-6.96
				c-18.26-2.96-36.27,1.6-53.32,6.84c-7.99,2.18-16.11,5.76-24.35,5.36c-6.36,0.09-11.31-6.34-6.58-11.76
				c1.33-1.5,3.29-2.44,5.36-2.51c1.22-0.04,2.22-1.03,2.26-2.26c0.04-1.28-0.97-2.36-2.26-2.4c-6.9-0.3-13.02,5.86-12.79,12.82
				c-0.02,7.46,8.54,12.68,13.56,12.58c1.29,0.14,2.57,0.19,3.84,0.19l-16.43,43.53c-0.01,0.02,0,0.03-0.01,0.04h-4.91
				c-1.71,0-3.05,1.55-2.7,3.22c1.92,9.14,11.87,16.1,23.85,16.1h6.68v-0.02c11.78-0.17,21.51-7.06,23.4-16.09
				c0.35-1.67-0.99-3.22-2.69-3.22h-4.91c-0.01-0.02,0-0.03-0.01-0.04l-16.6-43.96c5.88-0.83,11.62-2.63,17.39-3.87
				c22.31-5.74,48.2-9.57,67.8,4.34v8.14H111.1c-2.27,0-4.1,1.84-4.1,4.1v4.36c0,2.27,1.84,4.1,4.1,4.1h51.2
				c0.11,5.31,0.16,13.62,0.16,15.14v28.67c0,2.19-0.12,3.54-0.35,4.05c-0.3,0.73-0.73,1.24-1.29,1.54
				c-0.77,0.45-1.79,0.68-3.05,0.68h-1.45v1.19h37.65l1.64-15.3h-1.32c-1.01,3.43-2.08,6.02-3.2,7.77c-1.12,1.76-2.46,3.05-4,3.86
				c-1.54,0.81-2.43,1.22-4.74,1.22h-3.63c-2.06,0-3.35-0.1-3.89-0.29c-0.75-0.3-1.25-0.76-1.51-1.37
				c-0.26-0.61-0.39-2.03-0.39-4.26v-27.77c0-1.5,0.06-9.87,0.17-15.14h51.1c2.27,0,4.1-1.84,4.1-4.1V133c0-2.27-1.84-4.1-4.1-4.1
				h-50.27v-8.11c5.57-3.88,11.88-6.64,18.64-8.13c16.13-3.58,33.06-0.18,49.16,3.76c5.16,1.2,11.6,2.97,17.4,3.84l-16.61,43.99
				c-0.01,0.02,0,0.03-0.01,0.04h-4.91c-1.71,0-3.05,1.55-2.69,3.22c1.9,9.02,11.62,15.91,23.4,16.09v0.02H265
				c11.98,0,21.92-6.96,23.85-16.1C289.2,165.84,287.86,164.29,286.15,164.29z M72.32,164.29H56.78l15.54-41.17V164.29z
				 M90.06,164.29H74.87v-40.24L90.06,164.29z M260.43,164.29h-15.19l15.19-40.24V164.29z M262.98,164.29v-41.17l15.55,41.17H262.98
				z"/>
		</g>
		
			<linearGradient id="SVGID_00000016052420882476044760000000869906218582882474_" gradientUnits="userSpaceOnUse" x1="167.6642" y1="47.4462" x2="167.6642" y2="102.9363">
			<stop  offset="0" style="stop-color:#DAB077"/>
			<stop  offset="0.1361" style="stop-color:#D2AA72"/>
			<stop  offset="0.3096" style="stop-color:#BF9A64"/>
			<stop  offset="0.4296" style="stop-color:#AD8B57"/>
			<stop  offset="0.5818" style="stop-color:#A68654"/>
			<stop  offset="0.7758" style="stop-color:#93784B"/>
			<stop  offset="0.8229" style="stop-color:#8D7448"/>
		</linearGradient>
		
			<path style="fill:none;stroke:url(#SVGID_00000016052420882476044760000000869906218582882474_);stroke-width:4.396;stroke-linecap:round;stroke-linejoin:round;stroke-miterlimit:10;" d="
			M84.04,100.68c15.59-30.31,47.18-51.03,83.61-51.03c36.45,0,68.06,20.76,83.64,51.09"/>
		
			<linearGradient id="SVGID_00000135684523271659344690000006783253601887390088_" gradientUnits="userSpaceOnUse" x1="167.65" y1="189.7636" x2="167.65" y2="239.7775">
			<stop  offset="0" style="stop-color:#DAB077"/>
			<stop  offset="0.1361" style="stop-color:#D2AA72"/>
			<stop  offset="0.3096" style="stop-color:#BF9A64"/>
			<stop  offset="0.4296" style="stop-color:#AD8B57"/>
			<stop  offset="0.5818" style="stop-color:#A68654"/>
			<stop  offset="0.7758" style="stop-color:#93784B"/>
			<stop  offset="0.8229" style="stop-color:#8D7448"/>
		</linearGradient>
		
			<path style="fill:none;stroke:url(#SVGID_00000135684523271659344690000006783253601887390088_);stroke-width:4.396;stroke-linecap:round;stroke-linejoin:round;stroke-miterlimit:10;" d="
			M87.06,191.96c16.43,27.33,46.37,45.62,80.59,45.62c34.21,0,64.16-18.28,80.59-45.62"/>
	</g>
</g>
<g>
	<g>
		<path d="M82.26,70.38L88.44,64c1.05-1.08,2.18-1.67,3.39-1.77c1.22-0.1,2.25,0.26,3.08,1.07c0.64,0.62,1.01,1.35,1.12,2.19
			c0.11,0.84-0.04,1.69-0.44,2.54c-0.4,0.85-0.91,1.59-1.52,2.22l-1.95,2.02l3.55,3.44c0.2,0.19,0.4,0.28,0.62,0.27
			c0.22-0.01,0.41-0.1,0.58-0.28l1.21-1.25l0.68,0.66l-5.62,5.81l-0.68-0.66l0.94-0.97c0.21-0.22,0.31-0.43,0.31-0.65
			c0-0.22-0.1-0.42-0.3-0.61L85.13,70c-0.19-0.18-0.39-0.27-0.61-0.26c-0.22,0.01-0.4,0.09-0.56,0.25l-1.01,1.05L82.26,70.38z
			 M91.46,71.63l1.31-1.35c0.46-0.47,0.76-0.99,0.91-1.55c0.15-0.56,0.16-1.06,0.02-1.49c-0.14-0.43-0.53-0.96-1.17-1.58
			c-0.88-0.86-1.74-1.22-2.56-1.1c-0.6,0.1-1.3,0.56-2.12,1.4c-0.47,0.49-0.73,0.83-0.77,1.04c-0.04,0.21,0.03,0.41,0.23,0.6
			L91.46,71.63z"/>
		<path d="M98.48,54.88l6.55-4.45c1.06-0.72,2.02-1.17,2.88-1.35c0.86-0.18,1.61-0.15,2.26,0.1c0.65,0.25,1.17,0.66,1.56,1.24
			c0.63,0.92,0.72,1.95,0.28,3.08c-0.33,0.86-1.11,1.8-2.33,2.82c0.73-0.34,1.35-0.51,1.86-0.51s1.06,0.13,1.65,0.41
			c0.77,0.37,1.56,0.9,2.37,1.6c0.51,0.45,0.87,0.71,1.08,0.78c0.2,0.07,0.37,0.06,0.51-0.04c0.37-0.25,0.26-0.9-0.34-1.94
			l0.75-0.51c0.66,1.09,0.93,2,0.83,2.74s-0.53,1.36-1.28,1.87c-0.54,0.37-1.04,0.55-1.52,0.55c-0.47,0-0.94-0.15-1.4-0.46
			c-0.27-0.17-0.8-0.65-1.59-1.43c-0.92-0.91-1.59-1.49-2-1.74c-0.41-0.25-0.81-0.37-1.2-0.37c-0.38,0.01-0.77,0.14-1.16,0.41
			l-0.92,0.63l3.14,4.62c0.14,0.2,0.3,0.32,0.5,0.35c0.27,0.03,0.51-0.04,0.74-0.19l1.14-0.77l0.54,0.79L107,67.42l-0.54-0.79
			l0.98-0.67c0.25-0.17,0.4-0.37,0.44-0.59c0.04-0.22-0.02-0.45-0.18-0.69l-6.42-9.46c-0.18-0.26-0.37-0.41-0.57-0.45
			c-0.2-0.04-0.41,0.01-0.63,0.16l-1.07,0.73L98.48,54.88z M106.79,57.55l1.06-0.72c0.94-0.64,1.52-1.38,1.73-2.23
			c0.16-0.64-0.06-1.4-0.65-2.27c-0.54-0.8-1.14-1.25-1.8-1.35c-0.65-0.1-1.47,0.19-2.46,0.86c-0.53,0.36-0.83,0.64-0.88,0.85
			c-0.06,0.21,0.05,0.51,0.32,0.91L106.79,57.55z"/>
		<path d="M125.45,39.19c1.33-0.53,2.68-0.71,4.05-0.51c1.38,0.19,2.6,0.71,3.67,1.57c1.07,0.86,1.88,1.98,2.44,3.36
			c0.85,2.11,0.87,4.15,0.05,6.11c-0.81,1.96-2.24,3.35-4.28,4.17c-1.36,0.55-2.7,0.71-4.03,0.51c-1.33-0.21-2.53-0.73-3.59-1.57
			c-1.06-0.84-1.88-1.97-2.46-3.41c-0.86-2.14-0.88-4.17-0.08-6.11C122.03,41.37,123.44,40,125.45,39.19z M125.87,40.08
			c-0.75,0.3-1.33,0.77-1.71,1.41c-0.39,0.64-0.56,1.49-0.51,2.54c0.04,1.06,0.39,2.39,1.04,4c0.68,1.69,1.35,2.91,2,3.66
			s1.35,1.22,2.1,1.41c0.75,0.19,1.5,0.12,2.27-0.18c1.13-0.46,1.85-1.31,2.13-2.55c0.29-1.25-0.05-3.07-1.02-5.48
			c-0.68-1.69-1.33-2.89-1.96-3.62s-1.32-1.18-2.06-1.37S126.63,39.77,125.87,40.08z"/>
		<path d="M141.1,34.15l6.04-0.91l4.94,9.64l1.86-10.67l6.2-0.94l0.14,0.94l-1.34,0.2c-0.33,0.05-0.55,0.15-0.66,0.29
			c-0.11,0.14-0.14,0.36-0.09,0.66l1.73,11.46c0.04,0.29,0.14,0.48,0.29,0.57c0.23,0.13,0.52,0.17,0.86,0.12l1.19-0.18l0.14,0.94
			l-7.63,1.15l-0.14-0.94l1.44-0.22c0.26-0.04,0.45-0.14,0.57-0.31c0.12-0.17,0.15-0.39,0.11-0.65l-1.85-12.27l-2.64,14.77
			l-0.9,0.14l-6.89-13.46l1.66,10.96c0.1,0.63,0.37,1.11,0.83,1.46c0.46,0.34,1.07,0.5,1.84,0.46l0.14,0.94l-5.57,0.84l-0.14-0.94
			c0.69-0.17,1.2-0.5,1.53-0.99c0.32-0.49,0.43-1.07,0.33-1.74l-1.46-9.69c-0.06-0.41-0.17-0.68-0.34-0.79
			c-0.16-0.11-0.45-0.14-0.85-0.08l-1.19,0.18L141.1,34.15z"/>
		<path d="M168.02,31.37l7.77,0.3l-0.04,0.95l-1.4-0.05c-0.3-0.01-0.52,0.04-0.66,0.15c-0.14,0.11-0.22,0.29-0.23,0.52l-0.45,11.73
			c-0.01,0.27,0.05,0.47,0.19,0.59c0.18,0.16,0.44,0.24,0.79,0.26l1.25,0.05l-0.04,0.95l-7.77-0.3l0.04-0.95l1.19,0.05
			c0.41,0.02,0.7-0.04,0.87-0.17c0.17-0.13,0.26-0.33,0.27-0.6l0.44-11.6c0.01-0.29-0.06-0.5-0.21-0.64
			c-0.15-0.14-0.39-0.22-0.71-0.23l-1.35-0.05L168.02,31.37z"/>
		<path d="M183.54,32.29l4.6,1l5.83,11.9l1.5-6.91c0.15-0.68,0.07-1.27-0.23-1.76c-0.3-0.5-0.8-0.84-1.5-1.04l0.2-0.93l5.41,1.17
			l-0.2,0.93c-0.77-0.08-1.36,0.03-1.77,0.33c-0.41,0.3-0.69,0.81-0.85,1.54l-2.5,11.56l-1.16-0.25l-6.6-13.67l-1.75,8.1
			c-0.2,0.93-0.13,1.65,0.2,2.17c0.33,0.51,0.81,0.84,1.44,0.98l0.25,0.05l-0.2,0.93l-5.98-1.3l0.2-0.93l0.41,0.09
			c0.59,0.13,1.13,0,1.64-0.38c0.5-0.38,0.83-0.94,0.99-1.67l2.07-9.57c-0.32-0.69-0.83-1.11-1.52-1.26l-0.66-0.14L183.54,32.29z"/>
		<path d="M206.88,38.3l12.04,5.42l-1.9,4.96l-0.82-0.37c0.32-1.23,0.45-2.16,0.38-2.79c-0.06-0.63-0.28-1.18-0.63-1.64
			c-0.36-0.46-0.92-0.86-1.68-1.21l-1.89-0.85c-0.29-0.13-0.53-0.17-0.71-0.11c-0.18,0.06-0.32,0.19-0.41,0.39l-2.16,4.8l0.65,0.29
			c0.74,0.33,1.41,0.38,2.01,0.14c0.6-0.24,1.15-0.81,1.65-1.72l0.84,0.38l-2.89,6.43l-0.84-0.38c0.42-1.09,0.53-1.95,0.31-2.57
			c-0.21-0.62-0.74-1.12-1.57-1.49l-0.53-0.24l-2.3,5.11c-0.1,0.22-0.11,0.41-0.02,0.57c0.14,0.23,0.39,0.42,0.77,0.59l1.67,0.75
			c1.14,0.51,2.24,0.57,3.29,0.16c1.05-0.4,2-1.3,2.83-2.7l0.84,0.38l-2.57,5.17l-12.56-5.65l0.39-0.87l1.24,0.56
			c0.28,0.13,0.53,0.15,0.74,0.07c0.21-0.08,0.37-0.24,0.48-0.48l4.79-10.64c0.1-0.22,0.1-0.42,0-0.59s-0.34-0.34-0.72-0.51
			l-1.1-0.49L206.88,38.3z"/>
		<path d="M227.14,48.25l3.8,2.77l0.51,13.24l4.16-5.71c0.41-0.56,0.58-1.13,0.51-1.71c-0.07-0.57-0.39-1.1-0.95-1.56l0.56-0.77
			l4.47,3.26l-0.56,0.77c-0.67-0.39-1.26-0.53-1.75-0.42c-0.5,0.11-0.96,0.46-1.4,1.07l-6.97,9.56l-0.96-0.7l-0.5-15.17l-4.88,6.69
			c-0.56,0.77-0.79,1.45-0.7,2.06c0.09,0.61,0.4,1.1,0.92,1.48l0.21,0.15l-0.56,0.77l-4.95-3.61l0.56-0.77L219,59.9
			c0.49,0.35,1.04,0.46,1.65,0.32c0.61-0.14,1.14-0.52,1.58-1.13l5.77-7.91c-0.01-0.76-0.31-1.35-0.88-1.77l-0.55-0.4L227.14,48.25z
			"/>
		<path d="M246.17,63.36l8.92,9.81l-4.04,4.13l-0.63-0.69c0.76-0.99,1.28-1.84,1.56-2.57c0.28-0.72,0.37-1.35,0.29-1.87
			c-0.09-0.53-0.31-0.99-0.67-1.38c-0.21-0.23-0.41-0.35-0.6-0.37c-0.19-0.02-0.37,0.05-0.55,0.21l-8.68,7.89
			c-0.17,0.15-0.26,0.33-0.27,0.53c-0.01,0.2,0.05,0.37,0.18,0.52l1.16,1.27l-0.71,0.64l-5.46-6l0.71-0.64l1.1,1.21
			c0.17,0.18,0.35,0.28,0.55,0.29c0.2,0.01,0.39-0.06,0.56-0.22l8.63-7.85c0.2-0.18,0.3-0.37,0.3-0.57s-0.11-0.41-0.32-0.64
			c-1.17-1.29-3.15-1.09-5.92,0.6l-0.61-0.67L246.17,63.36z"/>
	</g>
	<g>
		
			<linearGradient id="SVGID_00000103250769613051001500000011926433620214875564_" gradientUnits="userSpaceOnUse" x1="82.2635" y1="56.3728" x2="255.0901" y2="56.3728">
			<stop  offset="0" style="stop-color:#C49A6C"/>
			<stop  offset="1" style="stop-color:#603913"/>
		</linearGradient>
		<path style="fill:url(#SVGID_00000103250769613051001500000011926433620214875564_);" d="M82.26,70.38L88.44,64
			c1.05-1.08,2.18-1.67,3.39-1.77c1.22-0.1,2.25,0.26,3.08,1.07c0.64,0.62,1.01,1.35,1.12,2.19c0.11,0.84-0.04,1.69-0.44,2.54
			c-0.4,0.85-0.91,1.59-1.52,2.22l-1.95,2.02l3.55,3.44c0.2,0.19,0.4,0.28,0.62,0.27c0.22-0.01,0.41-0.1,0.58-0.28l1.21-1.25
			l0.68,0.66l-5.62,5.81l-0.68-0.66l0.94-0.97c0.21-0.22,0.31-0.43,0.31-0.65c0-0.22-0.1-0.42-0.3-0.61L85.13,70
			c-0.19-0.18-0.39-0.27-0.61-0.26c-0.22,0.01-0.4,0.09-0.56,0.25l-1.01,1.05L82.26,70.38z M91.46,71.63l1.31-1.35
			c0.46-0.47,0.76-0.99,0.91-1.55c0.15-0.56,0.16-1.06,0.02-1.49c-0.14-0.43-0.53-0.96-1.17-1.58c-0.88-0.86-1.74-1.22-2.56-1.1
			c-0.6,0.1-1.3,0.56-2.12,1.4c-0.47,0.49-0.73,0.83-0.77,1.04c-0.04,0.21,0.03,0.41,0.23,0.6L91.46,71.63z"/>
		
			<linearGradient id="SVGID_00000033342222210671883630000007214768726658915221_" gradientUnits="userSpaceOnUse" x1="82.2635" y1="56.3728" x2="255.0901" y2="56.3728">
			<stop  offset="0" style="stop-color:#C49A6C"/>
			<stop  offset="1" style="stop-color:#603913"/>
		</linearGradient>
		<path style="fill:url(#SVGID_00000033342222210671883630000007214768726658915221_);" d="M98.48,54.88l6.55-4.45
			c1.06-0.72,2.02-1.17,2.88-1.35c0.86-0.18,1.61-0.15,2.26,0.1c0.65,0.25,1.17,0.66,1.56,1.24c0.63,0.92,0.72,1.95,0.28,3.08
			c-0.33,0.86-1.11,1.8-2.33,2.82c0.73-0.34,1.35-0.51,1.86-0.51s1.06,0.13,1.65,0.41c0.77,0.37,1.56,0.9,2.37,1.6
			c0.51,0.45,0.87,0.71,1.08,0.78c0.2,0.07,0.37,0.06,0.51-0.04c0.37-0.25,0.26-0.9-0.34-1.94l0.75-0.51c0.66,1.09,0.93,2,0.83,2.74
			s-0.53,1.36-1.28,1.87c-0.54,0.37-1.04,0.55-1.52,0.55c-0.47,0-0.94-0.15-1.4-0.46c-0.27-0.17-0.8-0.65-1.59-1.43
			c-0.92-0.91-1.59-1.49-2-1.74c-0.41-0.25-0.81-0.37-1.2-0.37c-0.38,0.01-0.77,0.14-1.16,0.41l-0.92,0.63l3.14,4.62
			c0.14,0.2,0.3,0.32,0.5,0.35c0.27,0.03,0.51-0.04,0.74-0.19l1.14-0.77l0.54,0.79L107,67.42l-0.54-0.79l0.98-0.67
			c0.25-0.17,0.4-0.37,0.44-0.59c0.04-0.22-0.02-0.45-0.18-0.69l-6.42-9.46c-0.18-0.26-0.37-0.41-0.57-0.45
			c-0.2-0.04-0.41,0.01-0.63,0.16l-1.07,0.73L98.48,54.88z M106.79,57.55l1.06-0.72c0.94-0.64,1.52-1.38,1.73-2.23
			c0.16-0.64-0.06-1.4-0.65-2.27c-0.54-0.8-1.14-1.25-1.8-1.35c-0.65-0.1-1.47,0.19-2.46,0.86c-0.53,0.36-0.83,0.64-0.88,0.85
			c-0.06,0.21,0.05,0.51,0.32,0.91L106.79,57.55z"/>
		
			<linearGradient id="SVGID_00000072239975834046428410000006291712140271891875_" gradientUnits="userSpaceOnUse" x1="82.2635" y1="56.3728" x2="255.0901" y2="56.3728">
			<stop  offset="0" style="stop-color:#C49A6C"/>
			<stop  offset="1" style="stop-color:#603913"/>
		</linearGradient>
		<path style="fill:url(#SVGID_00000072239975834046428410000006291712140271891875_);" d="M125.45,39.19
			c1.33-0.53,2.68-0.71,4.05-0.51c1.38,0.19,2.6,0.71,3.67,1.57c1.07,0.86,1.88,1.98,2.44,3.36c0.85,2.11,0.87,4.15,0.05,6.11
			c-0.81,1.96-2.24,3.35-4.28,4.17c-1.36,0.55-2.7,0.71-4.03,0.51c-1.33-0.21-2.53-0.73-3.59-1.57c-1.06-0.84-1.88-1.97-2.46-3.41
			c-0.86-2.14-0.88-4.17-0.08-6.11C122.03,41.37,123.44,40,125.45,39.19z M125.87,40.08c-0.75,0.3-1.33,0.77-1.71,1.41
			c-0.39,0.64-0.56,1.49-0.51,2.54c0.04,1.06,0.39,2.39,1.04,4c0.68,1.69,1.35,2.91,2,3.66s1.35,1.22,2.1,1.41
			c0.75,0.19,1.5,0.12,2.27-0.18c1.13-0.46,1.85-1.31,2.13-2.55c0.29-1.25-0.05-3.07-1.02-5.48c-0.68-1.69-1.33-2.89-1.96-3.62
			s-1.32-1.18-2.06-1.37S126.63,39.77,125.87,40.08z"/>
		
			<linearGradient id="SVGID_00000062887885698075255610000012042985089581910970_" gradientUnits="userSpaceOnUse" x1="82.2635" y1="56.3728" x2="255.0901" y2="56.3728">
			<stop  offset="0" style="stop-color:#C49A6C"/>
			<stop  offset="1" style="stop-color:#603913"/>
		</linearGradient>
		<path style="fill:url(#SVGID_00000062887885698075255610000012042985089581910970_);" d="M141.1,34.15l6.04-0.91l4.94,9.64
			l1.86-10.67l6.2-0.94l0.14,0.94l-1.34,0.2c-0.33,0.05-0.55,0.15-0.66,0.29c-0.11,0.14-0.14,0.36-0.09,0.66l1.73,11.46
			c0.04,0.29,0.14,0.48,0.29,0.57c0.23,0.13,0.52,0.17,0.86,0.12l1.19-0.18l0.14,0.94l-7.63,1.15l-0.14-0.94l1.44-0.22
			c0.26-0.04,0.45-0.14,0.57-0.31c0.12-0.17,0.15-0.39,0.11-0.65l-1.85-12.27l-2.64,14.77l-0.9,0.14l-6.89-13.46l1.66,10.96
			c0.1,0.63,0.37,1.11,0.83,1.46c0.46,0.34,1.07,0.5,1.84,0.46l0.14,0.94l-5.57,0.84l-0.14-0.94c0.69-0.17,1.2-0.5,1.53-0.99
			c0.32-0.49,0.43-1.07,0.33-1.74l-1.46-9.69c-0.06-0.41-0.17-0.68-0.34-0.79c-0.16-0.11-0.45-0.14-0.85-0.08l-1.19,0.18
			L141.1,34.15z"/>
		
			<linearGradient id="SVGID_00000058582002757484628760000012280690860422524811_" gradientUnits="userSpaceOnUse" x1="82.2635" y1="56.3728" x2="255.0901" y2="56.3728">
			<stop  offset="0" style="stop-color:#C49A6C"/>
			<stop  offset="1" style="stop-color:#603913"/>
		</linearGradient>
		<path style="fill:url(#SVGID_00000058582002757484628760000012280690860422524811_);" d="M168.02,31.37l7.77,0.3l-0.04,0.95
			l-1.4-0.05c-0.3-0.01-0.52,0.04-0.66,0.15c-0.14,0.11-0.22,0.29-0.23,0.52l-0.45,11.73c-0.01,0.27,0.05,0.47,0.19,0.59
			c0.18,0.16,0.44,0.24,0.79,0.26l1.25,0.05l-0.04,0.95l-7.77-0.3l0.04-0.95l1.19,0.05c0.41,0.02,0.7-0.04,0.87-0.17
			c0.17-0.13,0.26-0.33,0.27-0.6l0.44-11.6c0.01-0.29-0.06-0.5-0.21-0.64c-0.15-0.14-0.39-0.22-0.71-0.23l-1.35-0.05L168.02,31.37z"
			/>
		
			<linearGradient id="SVGID_00000070117445590168481840000012778911565100995456_" gradientUnits="userSpaceOnUse" x1="82.2635" y1="56.3728" x2="255.0901" y2="56.3728">
			<stop  offset="0" style="stop-color:#C49A6C"/>
			<stop  offset="1" style="stop-color:#603913"/>
		</linearGradient>
		<path style="fill:url(#SVGID_00000070117445590168481840000012778911565100995456_);" d="M183.54,32.29l4.6,1l5.83,11.9l1.5-6.91
			c0.15-0.68,0.07-1.27-0.23-1.76c-0.3-0.5-0.8-0.84-1.5-1.04l0.2-0.93l5.41,1.17l-0.2,0.93c-0.77-0.08-1.36,0.03-1.77,0.33
			c-0.41,0.3-0.69,0.81-0.85,1.54l-2.5,11.56l-1.16-0.25l-6.6-13.67l-1.75,8.1c-0.2,0.93-0.13,1.65,0.2,2.17
			c0.33,0.51,0.81,0.84,1.44,0.98l0.25,0.05l-0.2,0.93l-5.98-1.3l0.2-0.93l0.41,0.09c0.59,0.13,1.13,0,1.64-0.38
			c0.5-0.38,0.83-0.94,0.99-1.67l2.07-9.57c-0.32-0.69-0.83-1.11-1.52-1.26l-0.66-0.14L183.54,32.29z"/>
		
			<linearGradient id="SVGID_00000016758635812498454780000012410844958711753376_" gradientUnits="userSpaceOnUse" x1="82.2635" y1="56.3728" x2="255.0901" y2="56.3728">
			<stop  offset="0" style="stop-color:#C49A6C"/>
			<stop  offset="1" style="stop-color:#603913"/>
		</linearGradient>
		<path style="fill:url(#SVGID_00000016758635812498454780000012410844958711753376_);" d="M206.88,38.3l12.04,5.42l-1.9,4.96
			l-0.82-0.37c0.32-1.23,0.45-2.16,0.38-2.79c-0.06-0.63-0.28-1.18-0.63-1.64c-0.36-0.46-0.92-0.86-1.68-1.21l-1.89-0.85
			c-0.29-0.13-0.53-0.17-0.71-0.11c-0.18,0.06-0.32,0.19-0.41,0.39l-2.16,4.8l0.65,0.29c0.74,0.33,1.41,0.38,2.01,0.14
			c0.6-0.24,1.15-0.81,1.65-1.72l0.84,0.38l-2.89,6.43l-0.84-0.38c0.42-1.09,0.53-1.95,0.31-2.57c-0.21-0.62-0.74-1.12-1.57-1.49
			l-0.53-0.24l-2.3,5.11c-0.1,0.22-0.11,0.41-0.02,0.57c0.14,0.23,0.39,0.42,0.77,0.59l1.67,0.75c1.14,0.51,2.24,0.57,3.29,0.16
			c1.05-0.4,2-1.3,2.83-2.7l0.84,0.38l-2.57,5.17l-12.56-5.65l0.39-0.87l1.24,0.56c0.28,0.13,0.53,0.15,0.74,0.07
			c0.21-0.08,0.37-0.24,0.48-0.48l4.79-10.64c0.1-0.22,0.1-0.42,0-0.59s-0.34-0.34-0.72-0.51l-1.1-0.49L206.88,38.3z"/>
		
			<linearGradient id="SVGID_00000107569322384757346250000002785106430270803877_" gradientUnits="userSpaceOnUse" x1="82.2635" y1="56.3728" x2="255.0901" y2="56.3728">
			<stop  offset="0" style="stop-color:#C49A6C"/>
			<stop  offset="1" style="stop-color:#603913"/>
		</linearGradient>
		<path style="fill:url(#SVGID_00000107569322384757346250000002785106430270803877_);" d="M227.14,48.25l3.8,2.77l0.51,13.24
			l4.16-5.71c0.41-0.56,0.58-1.13,0.51-1.71c-0.07-0.57-0.39-1.1-0.95-1.56l0.56-0.77l4.47,3.26l-0.56,0.77
			c-0.67-0.39-1.26-0.53-1.75-0.42c-0.5,0.11-0.96,0.46-1.4,1.07l-6.97,9.56l-0.96-0.7l-0.5-15.17l-4.88,6.69
			c-0.56,0.77-0.79,1.45-0.7,2.06c0.09,0.61,0.4,1.1,0.92,1.48l0.21,0.15l-0.56,0.77l-4.95-3.61l0.56-0.77L219,59.9
			c0.49,0.35,1.04,0.46,1.65,0.32c0.61-0.14,1.14-0.52,1.58-1.13l5.77-7.91c-0.01-0.76-0.31-1.35-0.88-1.77l-0.55-0.4L227.14,48.25z
			"/>
		
			<linearGradient id="SVGID_00000029010946483254771330000003401975699813027754_" gradientUnits="userSpaceOnUse" x1="82.2635" y1="56.3728" x2="255.0901" y2="56.3728">
			<stop  offset="0" style="stop-color:#C49A6C"/>
			<stop  offset="1" style="stop-color:#603913"/>
		</linearGradient>
		<path style="fill:url(#SVGID_00000029010946483254771330000003401975699813027754_);" d="M246.17,63.36l8.92,9.81l-4.04,4.13
			l-0.63-0.69c0.76-0.99,1.28-1.84,1.56-2.57c0.28-0.72,0.37-1.35,0.29-1.87c-0.09-0.53-0.31-0.99-0.67-1.38
			c-0.21-0.23-0.41-0.35-0.6-0.37c-0.19-0.02-0.37,0.05-0.55,0.21l-8.68,7.89c-0.17,0.15-0.26,0.33-0.27,0.53
			c-0.01,0.2,0.05,0.37,0.18,0.52l1.16,1.27l-0.71,0.64l-5.46-6l0.71-0.64l1.1,1.21c0.17,0.18,0.35,0.28,0.55,0.29
			c0.2,0.01,0.39-0.06,0.56-0.22l8.63-7.85c0.2-0.18,0.3-0.37,0.3-0.57s-0.11-0.41-0.32-0.64c-1.17-1.29-3.15-1.09-5.92,0.6
			l-0.61-0.67L246.17,63.36z"/>
	</g>
</g>
<g>
	<g>
		<path d="M100.56,215.56l0.68-0.85l6.51,5.21l-0.68,0.85l-1.1-0.88c-0.31-0.25-0.58-0.36-0.81-0.34c-0.23,0.03-0.46,0.18-0.68,0.47
			l-8.01,10.01c-0.33,0.41-0.47,0.71-0.44,0.92c0.03,0.21,0.27,0.49,0.71,0.85l1.83,1.46c0.68,0.54,1.59,0.71,2.73,0.49
			c1.14-0.21,2.46-0.95,3.98-2.2l0.77,0.62l-4.42,4.93l-11.15-8.92l0.68-0.85l1.12,0.89c0.24,0.2,0.48,0.28,0.72,0.25
			c0.23-0.03,0.45-0.17,0.64-0.41l8.24-10.3c0.2-0.25,0.28-0.48,0.24-0.7c-0.04-0.22-0.22-0.45-0.53-0.7L100.56,215.56z"/>
		<path d="M124.22,229.75l-1.51,16.56c-0.04,0.47,0,0.82,0.11,1.05c0.11,0.23,0.32,0.42,0.62,0.57l0.53,0.27l-0.49,0.97l-6.81-3.42
			l0.49-0.97l0.64,0.32c0.51,0.25,0.88,0.37,1.13,0.35c0.25-0.02,0.42-0.13,0.52-0.33c0.08-0.15,0.13-0.35,0.15-0.59l0.31-3.42
			l-5.43-2.73l-1.17,1.04c-0.49,0.43-0.8,0.78-0.93,1.05c-0.23,0.45-0.25,0.9-0.08,1.34c0.17,0.44,0.53,0.79,1.08,1.07l0.46,0.23
			l-0.49,0.97l-5.51-2.77l0.49-0.97l0.31,0.16c0.35,0.18,0.73,0.22,1.11,0.12c0.55-0.14,1.06-0.42,1.53-0.84l11.83-10.57
			L124.22,229.75z M120.69,232.86l-5.27,4.7l4.62,2.32L120.69,232.86z"/>
		<path d="M133.08,234.8l6.35,1.51l-0.25,1.05l-0.6-0.14c-0.38-0.09-0.64-0.1-0.8-0.04s-0.25,0.19-0.3,0.38
			c-0.03,0.14-0.04,0.3-0.04,0.48l0.79,10.65l4.78-7.96l-0.12-1.58c-0.03-0.33-0.12-0.57-0.27-0.72c-0.2-0.21-0.49-0.36-0.87-0.45
			l-0.77-0.18l0.25-1.05l7.33,1.75l-0.25,1.05l-0.67-0.16c-0.49-0.12-0.84-0.14-1.04-0.06c-0.2,0.08-0.33,0.24-0.39,0.47
			c-0.02,0.1-0.03,0.21-0.02,0.33l0.76,10.64l4.7-8.1c0.15-0.24,0.25-0.49,0.31-0.74c0.11-0.46,0.08-0.84-0.09-1.15
			c-0.17-0.3-0.45-0.5-0.82-0.59l-0.45-0.11l0.25-1.05l5.15,1.23l-0.25,1.05c-0.57-0.12-1.06-0.09-1.46,0.1
			c-0.4,0.19-0.75,0.53-1.03,1.02l-7.82,13.36l-1.31-0.31l-0.92-12.64l-6.52,10.87l-1.3-0.31l-1.21-16.33
			c-0.02-0.34-0.1-0.59-0.24-0.76c-0.13-0.16-0.33-0.28-0.59-0.34l-0.5-0.12L133.08,234.8z"/>
		<path d="M169.74,240.51l14.27-1.27l0.69,5.91l-0.98,0.09c-0.34-1.81-0.85-3.04-1.54-3.68c-0.69-0.64-1.7-0.91-3.01-0.79
			l-2.39,0.21c-0.35,0.03-0.6,0.13-0.74,0.3c-0.15,0.17-0.21,0.4-0.18,0.68l0.51,5.75l0.87-0.08c1.74-0.16,2.64-1.34,2.72-3.57
			l0.96-0.09l0.71,7.93l-0.96,0.09c-0.11-0.85-0.3-1.51-0.57-1.98c-0.28-0.47-0.63-0.83-1.07-1.07c-0.43-0.24-0.92-0.34-1.46-0.29
			l-1.1,0.1l0.56,6.26c0.03,0.33,0.14,0.57,0.32,0.71c0.26,0.2,0.56,0.29,0.88,0.26l1.53-0.14l0.1,1.08l-8.56,0.76l-0.1-1.08
			l1.43-0.13c0.33-0.03,0.58-0.15,0.75-0.35c0.17-0.21,0.23-0.45,0.21-0.74l-1.17-13.12c-0.03-0.33-0.14-0.56-0.33-0.67
			c-0.19-0.12-0.56-0.15-1.12-0.1l-1.11,0.1L169.74,240.51z"/>
		<path d="M189.02,238.11l8.05-2.12l0.28,1.05l-1.45,0.38c-0.31,0.08-0.52,0.21-0.63,0.38c-0.11,0.17-0.13,0.38-0.06,0.64
			l3.39,12.91c0.08,0.3,0.21,0.5,0.39,0.58c0.24,0.12,0.53,0.13,0.89,0.03l1.29-0.34l0.28,1.05l-8.05,2.12l-0.28-1.05l1.23-0.32
			c0.42-0.11,0.7-0.26,0.84-0.46c0.13-0.2,0.16-0.44,0.08-0.73l-3.35-12.76c-0.08-0.32-0.22-0.53-0.42-0.64
			c-0.2-0.11-0.47-0.12-0.81-0.03l-1.4,0.37L189.02,238.11z"/>
		<path d="M202.34,234.44l7.67-3.6c1.25-0.58,2.34-0.89,3.29-0.92c0.95-0.03,1.75,0.16,2.41,0.57c0.66,0.41,1.16,0.97,1.49,1.69
			c0.54,1.15,0.49,2.3-0.14,3.46c-0.48,0.89-1.45,1.77-2.9,2.65c0.83-0.23,1.52-0.29,2.07-0.19s1.12,0.36,1.71,0.79
			c0.78,0.56,1.54,1.31,2.31,2.25c0.49,0.6,0.83,0.97,1.04,1.08c0.21,0.12,0.39,0.14,0.55,0.06c0.44-0.21,0.41-0.94-0.08-2.21
			l0.88-0.41c0.55,1.34,0.71,2.41,0.5,3.2c-0.22,0.79-0.77,1.4-1.65,1.81c-0.63,0.29-1.2,0.39-1.71,0.3
			c-0.51-0.1-0.99-0.36-1.43-0.79c-0.26-0.25-0.76-0.88-1.5-1.9c-0.86-1.19-1.49-1.97-1.9-2.33c-0.41-0.36-0.82-0.57-1.23-0.65
			c-0.41-0.07-0.85,0-1.31,0.21l-1.08,0.51l2.7,5.75c0.12,0.25,0.28,0.42,0.48,0.48c0.28,0.08,0.55,0.06,0.82-0.06l1.33-0.62
			l0.46,0.98l-7.44,3.49l-0.46-0.98l1.15-0.54c0.3-0.14,0.49-0.33,0.56-0.57c0.08-0.24,0.04-0.5-0.1-0.8l-5.52-11.77
			c-0.15-0.32-0.33-0.53-0.54-0.61c-0.21-0.09-0.45-0.07-0.7,0.05l-1.25,0.59L202.34,234.44z M210.87,239.08l1.24-0.58
			c1.1-0.52,1.83-1.22,2.18-2.12c0.26-0.68,0.14-1.56-0.37-2.65c-0.47-1-1.05-1.62-1.73-1.86c-0.69-0.24-1.61-0.09-2.77,0.46
			c-0.62,0.29-0.98,0.55-1.07,0.77c-0.09,0.22-0.02,0.58,0.21,1.08L210.87,239.08z"/>
		<path d="M220.9,225.41l5.06-4.14l10.26,6.7l-4.56-11.36l5.19-4.25l0.69,0.84l-1.13,0.92c-0.28,0.23-0.43,0.44-0.44,0.63
			c-0.02,0.19,0.08,0.42,0.3,0.69l8.35,10.19c0.21,0.26,0.41,0.39,0.61,0.39c0.29,0,0.58-0.11,0.87-0.35l1-0.82l0.69,0.84
			l-6.39,5.24l-0.69-0.84l1.21-0.99c0.22-0.18,0.33-0.38,0.34-0.61c0.01-0.23-0.08-0.46-0.28-0.69l-8.94-10.91l6.25,15.77
			l-0.75,0.62l-14.31-9.35l7.99,9.75c0.46,0.56,1,0.88,1.63,0.96c0.63,0.08,1.29-0.1,1.98-0.54l0.69,0.84l-4.66,3.82l-0.69-0.84
			c0.54-0.54,0.82-1.13,0.83-1.78s-0.23-1.28-0.72-1.87l-7.06-8.62c-0.3-0.37-0.56-0.56-0.78-0.58c-0.22-0.02-0.5,0.1-0.84,0.38
			l-0.99,0.81L220.9,225.41z"/>
	</g>
	<g>
		
			<linearGradient id="SVGID_00000165941510987099757910000017685115478798912897_" gradientUnits="userSpaceOnUse" x1="90.4685" y1="235.0174" x2="247.7688" y2="235.0174">
			<stop  offset="0" style="stop-color:#C49A6C"/>
			<stop  offset="1" style="stop-color:#603913"/>
		</linearGradient>
		<path style="fill:url(#SVGID_00000165941510987099757910000017685115478798912897_);" d="M100.56,215.56l0.68-0.85l6.51,5.21
			l-0.68,0.85l-1.1-0.88c-0.31-0.25-0.58-0.36-0.81-0.34c-0.23,0.03-0.46,0.18-0.68,0.47l-8.01,10.01
			c-0.33,0.41-0.47,0.71-0.44,0.92c0.03,0.21,0.27,0.49,0.71,0.85l1.83,1.46c0.68,0.54,1.59,0.71,2.73,0.49
			c1.14-0.21,2.46-0.95,3.98-2.2l0.77,0.62l-4.42,4.93l-11.15-8.92l0.68-0.85l1.12,0.89c0.24,0.2,0.48,0.28,0.72,0.25
			c0.23-0.03,0.45-0.17,0.64-0.41l8.24-10.3c0.2-0.25,0.28-0.48,0.24-0.7c-0.04-0.22-0.22-0.45-0.53-0.7L100.56,215.56z"/>
		
			<linearGradient id="SVGID_00000055699053244127134640000017982570600566641298_" gradientUnits="userSpaceOnUse" x1="90.4685" y1="235.0174" x2="247.7688" y2="235.0174">
			<stop  offset="0" style="stop-color:#C49A6C"/>
			<stop  offset="1" style="stop-color:#603913"/>
		</linearGradient>
		<path style="fill:url(#SVGID_00000055699053244127134640000017982570600566641298_);" d="M124.22,229.75l-1.51,16.56
			c-0.04,0.47,0,0.82,0.11,1.05c0.11,0.23,0.32,0.42,0.62,0.57l0.53,0.27l-0.49,0.97l-6.81-3.42l0.49-0.97l0.64,0.32
			c0.51,0.25,0.88,0.37,1.13,0.35c0.25-0.02,0.42-0.13,0.52-0.33c0.08-0.15,0.13-0.35,0.15-0.59l0.31-3.42l-5.43-2.73l-1.17,1.04
			c-0.49,0.43-0.8,0.78-0.93,1.05c-0.23,0.45-0.25,0.9-0.08,1.34c0.17,0.44,0.53,0.79,1.08,1.07l0.46,0.23l-0.49,0.97l-5.51-2.77
			l0.49-0.97l0.31,0.16c0.35,0.18,0.73,0.22,1.11,0.12c0.55-0.14,1.06-0.42,1.53-0.84l11.83-10.57L124.22,229.75z M120.69,232.86
			l-5.27,4.7l4.62,2.32L120.69,232.86z"/>
		
			<linearGradient id="SVGID_00000055693263707232719390000017426613666601188239_" gradientUnits="userSpaceOnUse" x1="90.4685" y1="235.0174" x2="247.7688" y2="235.0174">
			<stop  offset="0" style="stop-color:#C49A6C"/>
			<stop  offset="1" style="stop-color:#603913"/>
		</linearGradient>
		<path style="fill:url(#SVGID_00000055693263707232719390000017426613666601188239_);" d="M133.08,234.8l6.35,1.51l-0.25,1.05
			l-0.6-0.14c-0.38-0.09-0.64-0.1-0.8-0.04s-0.25,0.19-0.3,0.38c-0.03,0.14-0.04,0.3-0.04,0.48l0.79,10.65l4.78-7.96l-0.12-1.58
			c-0.03-0.33-0.12-0.57-0.27-0.72c-0.2-0.21-0.49-0.36-0.87-0.45l-0.77-0.18l0.25-1.05l7.33,1.75l-0.25,1.05l-0.67-0.16
			c-0.49-0.12-0.84-0.14-1.04-0.06c-0.2,0.08-0.33,0.24-0.39,0.47c-0.02,0.1-0.03,0.21-0.02,0.33l0.76,10.64l4.7-8.1
			c0.15-0.24,0.25-0.49,0.31-0.74c0.11-0.46,0.08-0.84-0.09-1.15c-0.17-0.3-0.45-0.5-0.82-0.59l-0.45-0.11l0.25-1.05l5.15,1.23
			l-0.25,1.05c-0.57-0.12-1.06-0.09-1.46,0.1c-0.4,0.19-0.75,0.53-1.03,1.02l-7.82,13.36l-1.31-0.31l-0.92-12.64l-6.52,10.87
			l-1.3-0.31l-1.21-16.33c-0.02-0.34-0.1-0.59-0.24-0.76c-0.13-0.16-0.33-0.28-0.59-0.34l-0.5-0.12L133.08,234.8z"/>
		
			<linearGradient id="SVGID_00000010990873714802257280000005539398591214849705_" gradientUnits="userSpaceOnUse" x1="90.4685" y1="235.0174" x2="247.7688" y2="235.0174">
			<stop  offset="0" style="stop-color:#C49A6C"/>
			<stop  offset="1" style="stop-color:#603913"/>
		</linearGradient>
		<path style="fill:url(#SVGID_00000010990873714802257280000005539398591214849705_);" d="M169.74,240.51l14.27-1.27l0.69,5.91
			l-0.98,0.09c-0.34-1.81-0.85-3.04-1.54-3.68c-0.69-0.64-1.7-0.91-3.01-0.79l-2.39,0.21c-0.35,0.03-0.6,0.13-0.74,0.3
			c-0.15,0.17-0.21,0.4-0.18,0.68l0.51,5.75l0.87-0.08c1.74-0.16,2.64-1.34,2.72-3.57l0.96-0.09l0.71,7.93l-0.96,0.09
			c-0.11-0.85-0.3-1.51-0.57-1.98c-0.28-0.47-0.63-0.83-1.07-1.07c-0.43-0.24-0.92-0.34-1.46-0.29l-1.1,0.1l0.56,6.26
			c0.03,0.33,0.14,0.57,0.32,0.71c0.26,0.2,0.56,0.29,0.88,0.26l1.53-0.14l0.1,1.08l-8.56,0.76l-0.1-1.08l1.43-0.13
			c0.33-0.03,0.58-0.15,0.75-0.35c0.17-0.21,0.23-0.45,0.21-0.74l-1.17-13.12c-0.03-0.33-0.14-0.56-0.33-0.67
			c-0.19-0.12-0.56-0.15-1.12-0.1l-1.11,0.1L169.74,240.51z"/>
		
			<linearGradient id="SVGID_00000039838735997277391800000003433452842304733374_" gradientUnits="userSpaceOnUse" x1="90.4685" y1="235.0174" x2="247.7688" y2="235.0174">
			<stop  offset="0" style="stop-color:#C49A6C"/>
			<stop  offset="1" style="stop-color:#603913"/>
		</linearGradient>
		<path style="fill:url(#SVGID_00000039838735997277391800000003433452842304733374_);" d="M189.02,238.11l8.05-2.12l0.28,1.05
			l-1.45,0.38c-0.31,0.08-0.52,0.21-0.63,0.38c-0.11,0.17-0.13,0.38-0.06,0.64l3.39,12.91c0.08,0.3,0.21,0.5,0.39,0.58
			c0.24,0.12,0.53,0.13,0.89,0.03l1.29-0.34l0.28,1.05l-8.05,2.12l-0.28-1.05l1.23-0.32c0.42-0.11,0.7-0.26,0.84-0.46
			c0.13-0.2,0.16-0.44,0.08-0.73l-3.35-12.76c-0.08-0.32-0.22-0.53-0.42-0.64c-0.2-0.11-0.47-0.12-0.81-0.03l-1.4,0.37
			L189.02,238.11z"/>
		
			<linearGradient id="SVGID_00000066516646067727625210000009829652623509079436_" gradientUnits="userSpaceOnUse" x1="90.4685" y1="235.0174" x2="247.7688" y2="235.0174">
			<stop  offset="0" style="stop-color:#C49A6C"/>
			<stop  offset="1" style="stop-color:#603913"/>
		</linearGradient>
		<path style="fill:url(#SVGID_00000066516646067727625210000009829652623509079436_);" d="M202.34,234.44l7.67-3.6
			c1.25-0.58,2.34-0.89,3.29-0.92c0.95-0.03,1.75,0.16,2.41,0.57c0.66,0.41,1.16,0.97,1.49,1.69c0.54,1.15,0.49,2.3-0.14,3.46
			c-0.48,0.89-1.45,1.77-2.9,2.65c0.83-0.23,1.52-0.29,2.07-0.19s1.12,0.36,1.71,0.79c0.78,0.56,1.54,1.31,2.31,2.25
			c0.49,0.6,0.83,0.97,1.04,1.08c0.21,0.12,0.39,0.14,0.55,0.06c0.44-0.21,0.41-0.94-0.08-2.21l0.88-0.41
			c0.55,1.34,0.71,2.41,0.5,3.2c-0.22,0.79-0.77,1.4-1.65,1.81c-0.63,0.29-1.2,0.39-1.71,0.3c-0.51-0.1-0.99-0.36-1.43-0.79
			c-0.26-0.25-0.76-0.88-1.5-1.9c-0.86-1.19-1.49-1.97-1.9-2.33c-0.41-0.36-0.82-0.57-1.23-0.65c-0.41-0.07-0.85,0-1.31,0.21
			l-1.08,0.51l2.7,5.75c0.12,0.25,0.28,0.42,0.48,0.48c0.28,0.08,0.55,0.06,0.82-0.06l1.33-0.62l0.46,0.98l-7.44,3.49l-0.46-0.98
			l1.15-0.54c0.3-0.14,0.49-0.33,0.56-0.57c0.08-0.24,0.04-0.5-0.1-0.8l-5.52-11.77c-0.15-0.32-0.33-0.53-0.54-0.61
			c-0.21-0.09-0.45-0.07-0.7,0.05l-1.25,0.59L202.34,234.44z M210.87,239.08l1.24-0.58c1.1-0.52,1.83-1.22,2.18-2.12
			c0.26-0.68,0.14-1.56-0.37-2.65c-0.47-1-1.05-1.62-1.73-1.86c-0.69-0.24-1.61-0.09-2.77,0.46c-0.62,0.29-0.98,0.55-1.07,0.77
			c-0.09,0.22-0.02,0.58,0.21,1.08L210.87,239.08z"/>
		
			<linearGradient id="SVGID_00000066505205011689120590000012920321039986292142_" gradientUnits="userSpaceOnUse" x1="90.4685" y1="235.0174" x2="247.7688" y2="235.0174">
			<stop  offset="0" style="stop-color:#C49A6C"/>
			<stop  offset="1" style="stop-color:#603913"/>
		</linearGradient>
		<path style="fill:url(#SVGID_00000066505205011689120590000012920321039986292142_);" d="M220.9,225.41l5.06-4.14l10.26,6.7
			l-4.56-11.36l5.19-4.25l0.69,0.84l-1.13,0.92c-0.28,0.23-0.43,0.44-0.44,0.63c-0.02,0.19,0.08,0.42,0.3,0.69l8.35,10.19
			c0.21,0.26,0.41,0.39,0.61,0.39c0.29,0,0.58-0.11,0.87-0.35l1-0.82l0.69,0.84l-6.39,5.24l-0.69-0.84l1.21-0.99
			c0.22-0.18,0.33-0.38,0.34-0.61c0.01-0.23-0.08-0.46-0.28-0.69l-8.94-10.91l6.25,15.77l-0.75,0.62l-14.31-9.35l7.99,9.75
			c0.46,0.56,1,0.88,1.63,0.96c0.63,0.08,1.29-0.1,1.98-0.54l0.69,0.84l-4.66,3.82l-0.69-0.84c0.54-0.54,0.82-1.13,0.83-1.78
			s-0.23-1.28-0.72-1.87l-7.06-8.62c-0.3-0.37-0.56-0.56-0.78-0.58c-0.22-0.02-0.5,0.1-0.84,0.38l-0.99,0.81L220.9,225.41z"/>
	</g>
</g>
<ellipse class="st24" cx="168.04" cy="144.17" rx="130.24" ry="128.61"/>
<text transform="matrix(1 0 0 1 319.8413 170.9399)" class="st25 st26 st27">Prominent Law Firm</text>
</svg>
