<?xml version="1.0" encoding="utf-8"?>
<!-- Generator: Adobe Illustrator 28.4.1, SVG Export Plug-In . SVG Version: 6.00 Build 0)  -->
<svg version="1.1" id="Layer_1" xmlns="http://www.w3.org/2000/svg" xmlns:xlink="http://www.w3.org/1999/xlink" x="0px" y="0px"
	 viewBox="0 0 595.28 489.72" style="enable-background:new 0 0 595.28 489.72;" xml:space="preserve">
<style type="text/css">
	.st0{display:none;}
	.st1{display:inline;}
	.st2{fill:#00647B;}
	.st3{fill:url(#SVGID_1_);}
	.st4{fill:url(#SVGID_00000050646910566432199640000017597181707654384297_);}
	.st5{fill:url(#SVGID_00000118374069117273146360000013503577066094659212_);}
	
		.st6{fill:none;stroke:url(#SVGID_00000031169389923679455400000007879966178318482309_);stroke-width:4.396;stroke-linecap:round;stroke-linejoin:round;stroke-miterlimit:10;}
	
		.st7{fill:none;stroke:url(#SVGID_00000105421621123108238930000012211542795961285513_);stroke-width:4.396;stroke-linecap:round;stroke-linejoin:round;stroke-miterlimit:10;}
	.st8{fill:url(#SVGID_00000031919756137950850970000007999083210929168055_);}
	.st9{fill:url(#SVGID_00000007426037825169521950000000017260673941441410_);}
	.st10{fill:url(#SVGID_00000033329554360903965130000008577987355451753894_);}
	.st11{fill:url(#SVGID_00000109023901952958288920000008180360779358054833_);}
	.st12{fill:url(#SVGID_00000071529385485880386710000015743634244901184173_);}
	.st13{fill:url(#SVGID_00000015326714237306327500000011385456842458444717_);}
	.st14{fill:url(#SVGID_00000093861440749114109820000005641931454617205162_);}
	.st15{fill:url(#SVGID_00000057854131422529576540000008138180370078542734_);}
	.st16{fill:url(#SVGID_00000029753070010268555690000002333529403690146446_);}
	.st17{fill:url(#SVGID_00000046315434319115782680000014697814750627124121_);}
	.st18{fill:url(#SVGID_00000142144592577503839770000003075214957789479838_);}
	.st19{fill:url(#SVGID_00000090257406150082856620000011543252907890579605_);}
	.st20{fill:url(#SVGID_00000155827188275078181170000010719383964684281222_);}
	.st21{fill:url(#SVGID_00000127018694346171001580000005533310942837672856_);}
	.st22{fill:url(#SVGID_00000094609138354673892210000001887715823810254225_);}
	.st23{fill:url(#SVGID_00000111172424236296156990000006432838456657166484_);}
	.st24{opacity:0.74;fill:none;stroke:#603913;stroke-width:3;stroke-miterlimit:10;}
</style>
<g>
	<g class="st0">
		<g class="st1">
			<path d="M64.13,480.49v14.92c0,2.91,0.18,4.74,0.55,5.5c0.37,0.75,1.02,1.36,1.96,1.81c0.94,0.45,2.66,0.67,5.17,0.67v1.47H43.66
				v-1.47c2.56,0,4.3-0.23,5.21-0.69c0.91-0.46,1.55-1.07,1.92-1.81c0.37-0.74,0.55-2.57,0.55-5.48v-34.92
				c0-2.91-0.18-4.74-0.55-5.5c-0.37-0.75-1.01-1.35-1.94-1.81c-0.93-0.45-2.66-0.67-5.19-0.67v-1.47H67.8
				c7.95,0,13.66,1.38,17.12,4.13c3.46,2.75,5.19,6.19,5.19,10.32c0,3.49-1.12,6.48-3.35,8.97c-2.23,2.49-5.31,4.18-9.23,5.08
				C74.88,480.17,70.42,480.49,64.13,480.49z M64.13,454.14v23.25c0.9,0.05,1.58,0.08,2.04,0.08c3.32,0,5.88-0.96,7.68-2.88
				c1.8-1.92,2.7-4.89,2.7-8.91c0-3.99-0.9-6.92-2.7-8.77c-1.8-1.85-4.48-2.78-8.05-2.78H64.13z"/>
			<path d="M114.87,480.33v15.08c0,2.91,0.18,4.74,0.55,5.5c0.37,0.75,1.01,1.36,1.94,1.81c0.93,0.45,2.66,0.67,5.19,0.67v1.47H94.2
				v-1.47c2.56,0,4.3-0.23,5.21-0.69c0.91-0.46,1.55-1.07,1.92-1.81c0.37-0.74,0.55-2.57,0.55-5.48v-34.92
				c0-2.91-0.18-4.74-0.55-5.5c-0.37-0.75-1.01-1.35-1.94-1.81c-0.93-0.45-2.66-0.67-5.19-0.67v-1.47h25.74
				c6.7,0,11.6,0.45,14.71,1.35c3.11,0.9,5.64,2.56,7.6,4.98c1.96,2.42,2.94,5.26,2.94,8.51c0,3.97-1.47,7.25-4.41,9.84
				c-1.88,1.64-4.51,2.87-7.88,3.69l13.32,18.21c1.74,2.35,2.98,3.82,3.72,4.4c1.12,0.82,2.41,1.27,3.88,1.35v1.47h-17.45
				l-17.85-24.52H114.87z M114.87,453.94v23.57h2.33c3.79,0,6.62-0.34,8.5-1.01c1.88-0.68,3.36-1.89,4.43-3.65
				c1.08-1.76,1.61-4.05,1.61-6.88c0-4.1-0.99-7.13-2.96-9.09c-1.97-1.96-5.15-2.94-9.54-2.94H114.87z"/>
			<path d="M185.39,450.29c8.82-0.32,15.99,2.18,21.51,7.5c5.52,5.32,8.27,11.97,8.27,19.96c0,6.82-2.06,12.83-6.17,18.01
				c-5.45,6.88-13.14,10.32-23.08,10.32c-9.97,0-17.68-3.28-23.12-9.84c-4.3-5.19-6.46-11.33-6.46-18.45c0-7.99,2.8-14.65,8.4-19.98
				C170.33,452.48,177.21,449.97,185.39,450.29z M185.88,452.83c-5.07,0-8.92,2.51-11.56,7.54c-2.15,4.13-3.23,10.05-3.23,17.78
				c0,9.18,1.66,15.97,4.98,20.36c2.32,3.07,5.56,4.6,9.72,4.6c2.81,0,5.15-0.66,7.03-1.98c2.4-1.69,4.26-4.4,5.6-8.11
				c1.33-3.72,2-8.56,2-14.54c0-7.12-0.68-12.44-2.04-15.97c-1.36-3.53-3.1-6.02-5.21-7.48
				C191.06,453.56,188.63,452.83,185.88,452.83z"/>
			<path d="M258.03,486.52l15.03-35.48h22.55v1.47h-1.8c-1.64,0-2.94,0.28-3.92,0.83c-0.68,0.37-1.23,0.99-1.63,1.86
				c-0.3,0.63-0.45,2.29-0.45,4.96v35.47c0,2.75,0.15,4.47,0.45,5.16c0.3,0.69,0.91,1.29,1.84,1.81c0.92,0.52,2.17,0.77,3.72,0.77
				h1.8v1.47h-28.93v-1.47h1.8c1.63,0,2.94-0.28,3.92-0.83c0.68-0.37,1.23-1.01,1.64-1.91c0.3-0.63,0.45-2.3,0.45-5v-39.88
				l-21.24,49.08h-0.98l-21.57-48.73v37.89c0,2.65,0.07,4.27,0.2,4.88c0.35,1.32,1.12,2.4,2.31,3.23c1.19,0.83,3.04,1.25,5.58,1.25
				v1.47h-18.96v-1.47h0.57c1.23,0.03,2.37-0.16,3.43-0.58c1.06-0.41,1.87-0.96,2.41-1.65c0.54-0.69,0.97-1.65,1.27-2.9
				c0.05-0.29,0.08-1.64,0.08-4.05v-34.05c0-2.73-0.15-4.43-0.45-5.1c-0.3-0.68-0.91-1.27-1.84-1.79c-0.93-0.52-2.17-0.77-3.72-0.77
				h-1.76v-1.47h22.63L258.03,486.52z"/>
			<path d="M327.77,503.38v1.47H298.8v-1.47h1.84c1.61,0,2.9-0.28,3.88-0.83c0.71-0.37,1.25-1.01,1.64-1.91
				c0.3-0.63,0.45-2.3,0.45-5v-35.39c0-2.75-0.15-4.47-0.45-5.16c-0.3-0.69-0.91-1.29-1.82-1.81c-0.91-0.52-2.15-0.77-3.7-0.77
				h-1.84v-1.47h28.96v1.47h-1.84c-1.61,0-2.9,0.28-3.88,0.83c-0.71,0.37-1.27,1.01-1.68,1.9c-0.3,0.63-0.45,2.3-0.45,5v35.39
				c0,2.75,0.16,4.47,0.47,5.16c0.31,0.69,0.93,1.29,1.84,1.81c0.91,0.52,2.15,0.77,3.7,0.77H327.77z"/>
			<path d="M350.52,451.04l27.33,33.37v-23.13c0-3.23-0.48-5.41-1.43-6.55c-1.31-1.53-3.5-2.28-6.58-2.22v-1.47h18.3v1.47
				c-2.34,0.29-3.92,0.67-4.72,1.13c-0.8,0.46-1.43,1.22-1.88,2.26c-0.45,1.05-0.68,2.84-0.68,5.38v44.8h-1.39l-37.47-44.8v34.2
				c0,3.1,0.73,5.18,2.19,6.27c1.46,1.08,3.13,1.63,5,1.63h1.31v1.47h-19.65v-1.47c3.05-0.03,5.18-0.63,6.37-1.83
				c1.2-1.19,1.8-3.21,1.8-6.07v-37.97l-1.19-1.43c-1.17-1.43-2.21-2.37-3.11-2.82c-0.9-0.45-2.19-0.7-3.88-0.75v-1.47H350.52z"/>
			<path d="M412.91,454.14v21.9h1.1c3.51,0,6.06-1.07,7.64-3.22c1.58-2.14,2.59-5.3,3.02-9.48h1.55v28.17h-1.55
				c-0.33-3.07-1.01-5.58-2.06-7.54c-1.05-1.96-2.27-3.27-3.66-3.95c-1.39-0.68-3.4-1.01-6.05-1.01v15.16
				c0,2.96,0.13,4.78,0.39,5.44c0.26,0.66,0.74,1.2,1.45,1.63c0.71,0.42,1.85,0.63,3.43,0.63h3.31c5.18,0,9.32-1.16,12.44-3.49
				c3.12-2.33,5.36-5.87,6.72-10.63h1.51l-2.49,17.1h-47.88v-1.47h1.84c1.61,0,2.9-0.28,3.88-0.83c0.71-0.37,1.25-1.01,1.64-1.91
				c0.3-0.63,0.45-2.3,0.45-5v-35.39c0-2.43-0.07-3.93-0.21-4.48c-0.27-0.93-0.78-1.64-1.51-2.14c-1.04-0.74-2.45-1.11-4.25-1.11
				h-1.84v-1.47h46.37v15.91h-1.55c-0.79-3.89-1.9-6.68-3.33-8.37c-1.43-1.69-3.45-2.94-6.07-3.73c-1.52-0.48-4.39-0.71-8.58-0.71
				H412.91z"/>
			<path d="M466.76,451.04l27.33,33.37v-23.13c0-3.23-0.48-5.41-1.43-6.55c-1.31-1.53-3.5-2.28-6.58-2.22v-1.47h18.3v1.47
				c-2.34,0.29-3.92,0.67-4.72,1.13c-0.8,0.46-1.43,1.22-1.88,2.26c-0.45,1.05-0.68,2.84-0.68,5.38v44.8h-1.39l-37.47-44.8v34.2
				c0,3.1,0.73,5.18,2.19,6.27c1.46,1.08,3.13,1.63,5,1.63h1.31v1.47H447.1v-1.47c3.05-0.03,5.18-0.63,6.37-1.83
				c1.2-1.19,1.8-3.21,1.8-6.07v-37.97l-1.19-1.43c-1.17-1.43-2.21-2.37-3.11-2.82c-0.9-0.45-2.19-0.7-3.88-0.75v-1.47H466.76z"/>
			<path d="M559.13,451.04v14.56h-1.47c-0.87-3.36-1.84-5.78-2.9-7.24c-1.06-1.47-2.52-2.64-4.37-3.51
				c-1.04-0.48-2.85-0.71-5.43-0.71h-4.13v41.5c0,2.75,0.16,4.47,0.47,5.16c0.31,0.69,0.93,1.29,1.84,1.81
				c0.91,0.52,2.16,0.77,3.74,0.77h1.84v1.47h-29.01v-1.47h1.84c1.61,0,2.9-0.28,3.88-0.83c0.71-0.37,1.27-1.01,1.68-1.91
				c0.3-0.63,0.45-2.3,0.45-5v-41.5h-4c-3.73,0-6.44,0.77-8.13,2.3c-2.37,2.14-3.87,5.2-4.49,9.17h-1.55v-14.56H559.13z"/>
			<path d="M173.82,554.88l-2.08,18.89h-49.19v-1.47h1.84c1.61,0,2.9-0.28,3.88-0.83c0.71-0.37,1.25-1.01,1.63-1.91
				c0.3-0.63,0.45-2.3,0.45-5v-35.39c0-2.75-0.15-4.47-0.45-5.16c-0.3-0.69-0.91-1.29-1.82-1.81c-0.91-0.52-2.15-0.77-3.7-0.77
				h-1.84v-1.47h29.54v1.47h-2.41c-1.61,0-2.9,0.28-3.88,0.83c-0.71,0.37-1.27,1.01-1.67,1.9c-0.3,0.63-0.45,2.3-0.45,5v34.28
				c0,2.75,0.16,4.5,0.49,5.26c0.33,0.75,0.97,1.32,1.92,1.69c0.68,0.24,2.33,0.36,4.94,0.36h4.62c2.94,0,5.39-0.5,7.35-1.51
				c1.96-1.01,3.66-2.59,5.09-4.76c1.43-2.17,2.78-5.37,4.06-9.6H173.82z"/>
			<path d="M200.71,568.3c-4.66,3.99-8.84,5.99-12.54,5.99c-2.18,0-3.99-0.69-5.43-2.08c-1.44-1.39-2.17-3.13-2.17-5.22
				c0-2.83,1.25-5.38,3.76-7.64c2.51-2.26,7.97-5.27,16.38-9.03v-3.73c0-2.8-0.16-4.57-0.47-5.3c-0.31-0.73-0.91-1.36-1.78-1.9
				c-0.87-0.54-1.85-0.81-2.94-0.81c-1.77,0-3.23,0.38-4.37,1.15c-0.71,0.48-1.06,1.03-1.06,1.67c0,0.56,0.38,1.24,1.14,2.06
				c1.04,1.14,1.55,2.24,1.55,3.29c0,1.3-0.5,2.4-1.49,3.31c-0.99,0.91-2.29,1.37-3.9,1.37c-1.72,0-3.15-0.5-4.31-1.51
				c-1.16-1.01-1.74-2.18-1.74-3.53c0-1.91,0.78-3.72,2.33-5.46c1.55-1.73,3.72-3.06,6.5-3.99c2.78-0.93,5.66-1.39,8.66-1.39
				c3.62,0,6.49,0.75,8.6,2.24c2.11,1.5,3.48,3.12,4.11,4.86c0.38,1.11,0.57,3.66,0.57,7.66v14.4c0,1.69,0.07,2.76,0.2,3.19
				c0.14,0.44,0.34,0.76,0.61,0.97c0.27,0.21,0.59,0.32,0.94,0.32c0.71,0,1.43-0.49,2.17-1.47l1.22,0.95
				c-1.36,1.96-2.77,3.38-4.23,4.27c-1.46,0.89-3.11,1.33-4.96,1.33c-2.18,0-3.88-0.5-5.11-1.49
				C201.73,571.81,200.98,570.31,200.71,568.3z M200.71,565.4v-12.42c-3.3,1.88-5.75,3.89-7.35,6.03c-1.06,1.43-1.59,2.87-1.59,4.33
				c0,1.22,0.45,2.29,1.35,3.21c0.68,0.71,1.63,1.07,2.86,1.07C197.33,567.62,198.91,566.88,200.71,565.4z"/>
			<path d="M259.34,574.88l-10.46-27.22l-10.25,27.22h-2.13l-10.17-26.9c-1.53-4.1-2.82-6.77-3.88-8.02
				c-0.68-0.85-1.72-1.46-3.11-1.83v-1.47h19.28v1.47c-1.31,0-2.21,0.19-2.7,0.56c-0.49,0.37-0.74,0.79-0.74,1.27
				c0,0.45,0.44,1.8,1.31,4.05l5.6,14.48l5.39-14.48l-0.41-0.95c-0.82-1.98-1.53-3.25-2.14-3.79c-0.61-0.54-1.56-0.92-2.84-1.13
				v-1.47h19.57v1.47c-1.53,0.08-2.49,0.29-2.9,0.62c-0.41,0.33-0.61,0.8-0.61,1.41c0,0.58,0.39,1.86,1.19,3.85l5.39,14.48
				l4.9-13.33c0.71-1.91,1.06-3.2,1.06-3.89c0-1.03-0.26-1.79-0.78-2.26c-0.52-0.48-1.52-0.77-3.02-0.87v-1.47h11.32v1.47
				c-1.25,0.16-2.25,0.59-2.98,1.29c-0.74,0.7-1.69,2.69-2.86,5.97l-10.7,29.48H259.34z"/>
			<path d="M322.99,523.06v22.1h1.59c2.45,0,4.45-0.36,6.01-1.07c1.55-0.71,2.87-1.92,3.94-3.61c1.08-1.69,1.78-3.98,2.1-6.86h1.43
				v27.02h-1.43c-0.52-5.1-1.93-8.47-4.23-10.1c-2.3-1.63-4.91-2.44-7.82-2.44h-1.59v16.47c0,2.75,0.16,4.47,0.47,5.16
				c0.31,0.69,0.92,1.29,1.84,1.81c0.91,0.52,2.15,0.77,3.7,0.77h1.84v1.47h-28.97v-1.47h1.84c1.61,0,2.9-0.28,3.88-0.83
				c0.71-0.37,1.25-1.01,1.64-1.91c0.3-0.63,0.45-2.3,0.45-5v-35.39c0-2.75-0.15-4.47-0.45-5.16c-0.3-0.69-0.91-1.29-1.82-1.81
				c-0.91-0.52-2.15-0.77-3.7-0.77h-1.84v-1.47h46.74v15.44h-1.67c-0.38-3.62-1.36-6.31-2.92-8.05c-1.57-1.74-3.83-2.98-6.8-3.69
				c-1.63-0.4-4.66-0.6-9.07-0.6H322.99z"/>
			<path d="M368.83,536.67v29.4c0,2.62,0.31,4.29,0.94,5.02c0.63,0.73,1.85,1.14,3.68,1.25v1.43h-20.63v-1.43
				c1.69-0.05,2.94-0.53,3.76-1.43c0.54-0.61,0.82-2.22,0.82-4.84v-21.67c0-2.62-0.31-4.29-0.94-5.02
				c-0.63-0.73-1.84-1.14-3.64-1.25v-1.47H368.83z M363.11,518.7c1.77,0,3.27,0.6,4.49,1.81c1.23,1.2,1.84,2.65,1.84,4.35
				s-0.62,3.13-1.86,4.32c-1.24,1.19-2.73,1.79-4.47,1.79c-1.74,0-3.23-0.6-4.45-1.79c-1.23-1.19-1.84-2.63-1.84-4.32
				s0.61-3.14,1.84-4.35C359.88,519.3,361.36,518.7,363.11,518.7z"/>
			<path d="M393.01,536.67v8.41c2.53-3.83,4.75-6.38,6.66-7.64c1.91-1.26,3.75-1.89,5.52-1.89c1.52,0,2.74,0.46,3.66,1.37
				c0.91,0.91,1.37,2.2,1.37,3.87c0,1.77-0.44,3.15-1.33,4.13c-0.89,0.98-1.96,1.47-3.21,1.47c-1.44,0-2.7-0.45-3.76-1.35
				c-1.06-0.9-1.69-1.4-1.88-1.51c-0.27-0.16-0.59-0.24-0.94-0.24c-0.79,0-1.54,0.29-2.25,0.87c-1.12,0.9-1.96,2.18-2.53,3.85
				c-0.87,2.57-1.31,5.4-1.31,8.49v8.53l0.04,2.22c0,1.51,0.1,2.47,0.29,2.9c0.33,0.71,0.81,1.24,1.45,1.57
				c0.64,0.33,1.72,0.54,3.25,0.62v1.43h-20.63v-1.43c1.66-0.13,2.79-0.58,3.37-1.33c0.59-0.75,0.88-2.74,0.88-5.97v-20.51
				c0-2.12-0.11-3.46-0.33-4.05c-0.27-0.74-0.67-1.28-1.19-1.63s-1.43-0.58-2.74-0.71v-1.47H393.01z"/>
			<path d="M430.15,536.67v4.88c2.1-2.22,4.04-3.78,5.82-4.66c1.78-0.89,3.74-1.33,5.86-1.33c2.45,0,4.51,0.56,6.17,1.67
				c1.66,1.11,2.94,2.81,3.84,5.08c2.18-2.38,4.27-4.1,6.27-5.16c2-1.06,4.09-1.59,6.27-1.59c2.64,0,4.75,0.59,6.31,1.77
				c1.57,1.18,2.66,2.67,3.27,4.48c0.61,1.81,0.92,4.7,0.92,8.67v15.2c0,2.86,0.27,4.63,0.8,5.32c0.53,0.69,1.64,1.14,3.33,1.35
				v1.43h-19.73v-1.43c1.55-0.13,2.7-0.71,3.43-1.75c0.49-0.71,0.74-2.35,0.74-4.92v-15.95c0-3.31-0.14-5.41-0.41-6.31
				c-0.27-0.9-0.7-1.57-1.29-2c-0.59-0.44-1.27-0.65-2.06-0.65c-1.17,0-2.36,0.42-3.55,1.25c-1.2,0.83-2.41,2.08-3.64,3.75v19.92
				c0,2.67,0.23,4.35,0.69,5.04c0.63,0.98,1.82,1.52,3.6,1.63v1.43h-19.77v-1.43c1.06-0.05,1.9-0.31,2.51-0.78
				c0.61-0.46,1.02-1.02,1.23-1.67c0.21-0.65,0.31-2.05,0.31-4.23v-15.95c0-3.36-0.14-5.46-0.41-6.31
				c-0.27-0.84-0.73-1.51-1.37-1.98c-0.64-0.48-1.33-0.71-2.06-0.71c-1.09,0-2.08,0.28-2.98,0.83c-1.28,0.82-2.64,2.22-4.09,4.21
				v19.92c0,2.62,0.27,4.35,0.8,5.18c0.53,0.83,1.64,1.33,3.33,1.49v1.43h-19.69v-1.43c1.61-0.16,2.75-0.66,3.43-1.51
				c0.46-0.58,0.7-2.3,0.7-5.16v-20.95c0-2.8-0.27-4.55-0.8-5.24c-0.53-0.69-1.64-1.14-3.33-1.35v-1.47H430.15z"/>
		</g>
		<g class="st1">
			<path class="st2" d="M64.13,480.49v14.92c0,2.91,0.18,4.74,0.55,5.5c0.37,0.75,1.02,1.36,1.96,1.81
				c0.94,0.45,2.66,0.67,5.17,0.67v1.47H43.66v-1.47c2.56,0,4.3-0.23,5.21-0.69c0.91-0.46,1.55-1.07,1.92-1.81
				c0.37-0.74,0.55-2.57,0.55-5.48v-34.92c0-2.91-0.18-4.74-0.55-5.5c-0.37-0.75-1.01-1.35-1.94-1.81
				c-0.93-0.45-2.66-0.67-5.19-0.67v-1.47H67.8c7.95,0,13.66,1.38,17.12,4.13c3.46,2.75,5.19,6.19,5.19,10.32
				c0,3.49-1.12,6.48-3.35,8.97c-2.23,2.49-5.31,4.18-9.23,5.08C74.88,480.17,70.42,480.49,64.13,480.49z M64.13,454.14v23.25
				c0.9,0.05,1.58,0.08,2.04,0.08c3.32,0,5.88-0.96,7.68-2.88c1.8-1.92,2.7-4.89,2.7-8.91c0-3.99-0.9-6.92-2.7-8.77
				c-1.8-1.85-4.48-2.78-8.05-2.78H64.13z"/>
			<path class="st2" d="M114.87,480.33v15.08c0,2.91,0.18,4.74,0.55,5.5c0.37,0.75,1.01,1.36,1.94,1.81
				c0.93,0.45,2.66,0.67,5.19,0.67v1.47H94.2v-1.47c2.56,0,4.3-0.23,5.21-0.69c0.91-0.46,1.55-1.07,1.92-1.81
				c0.37-0.74,0.55-2.57,0.55-5.48v-34.92c0-2.91-0.18-4.74-0.55-5.5c-0.37-0.75-1.01-1.35-1.94-1.81
				c-0.93-0.45-2.66-0.67-5.19-0.67v-1.47h25.74c6.7,0,11.6,0.45,14.71,1.35c3.11,0.9,5.64,2.56,7.6,4.98
				c1.96,2.42,2.94,5.26,2.94,8.51c0,3.97-1.47,7.25-4.41,9.84c-1.88,1.64-4.51,2.87-7.88,3.69l13.32,18.21
				c1.74,2.35,2.98,3.82,3.72,4.4c1.12,0.82,2.41,1.27,3.88,1.35v1.47h-17.45l-17.85-24.52H114.87z M114.87,453.94v23.57h2.33
				c3.79,0,6.62-0.34,8.5-1.01c1.88-0.68,3.36-1.89,4.43-3.65c1.08-1.76,1.61-4.05,1.61-6.88c0-4.1-0.99-7.13-2.96-9.09
				c-1.97-1.96-5.15-2.94-9.54-2.94H114.87z"/>
			<path class="st2" d="M185.39,450.29c8.82-0.32,15.99,2.18,21.51,7.5c5.52,5.32,8.27,11.97,8.27,19.96
				c0,6.82-2.06,12.83-6.17,18.01c-5.45,6.88-13.14,10.32-23.08,10.32c-9.97,0-17.68-3.28-23.12-9.84
				c-4.3-5.19-6.46-11.33-6.46-18.45c0-7.99,2.8-14.65,8.4-19.98C170.33,452.48,177.21,449.97,185.39,450.29z M185.88,452.83
				c-5.07,0-8.92,2.51-11.56,7.54c-2.15,4.13-3.23,10.05-3.23,17.78c0,9.18,1.66,15.97,4.98,20.36c2.32,3.07,5.56,4.6,9.72,4.6
				c2.81,0,5.15-0.66,7.03-1.98c2.4-1.69,4.26-4.4,5.6-8.11c1.33-3.72,2-8.56,2-14.54c0-7.12-0.68-12.44-2.04-15.97
				c-1.36-3.53-3.1-6.02-5.21-7.48C191.06,453.56,188.63,452.83,185.88,452.83z"/>
			<path class="st2" d="M258.03,486.52l15.03-35.48h22.55v1.47h-1.8c-1.64,0-2.94,0.28-3.92,0.83c-0.68,0.37-1.23,0.99-1.63,1.86
				c-0.3,0.63-0.45,2.29-0.45,4.96v35.47c0,2.75,0.15,4.47,0.45,5.16c0.3,0.69,0.91,1.29,1.84,1.81c0.92,0.52,2.17,0.77,3.72,0.77
				h1.8v1.47h-28.93v-1.47h1.8c1.63,0,2.94-0.28,3.92-0.83c0.68-0.37,1.23-1.01,1.64-1.91c0.3-0.63,0.45-2.3,0.45-5v-39.88
				l-21.24,49.08h-0.98l-21.57-48.73v37.89c0,2.65,0.07,4.27,0.2,4.88c0.35,1.32,1.12,2.4,2.31,3.23c1.19,0.83,3.04,1.25,5.58,1.25
				v1.47h-18.96v-1.47h0.57c1.23,0.03,2.37-0.16,3.43-0.58c1.06-0.41,1.87-0.96,2.41-1.65c0.54-0.69,0.97-1.65,1.27-2.9
				c0.05-0.29,0.08-1.64,0.08-4.05v-34.05c0-2.73-0.15-4.43-0.45-5.1c-0.3-0.68-0.91-1.27-1.84-1.79c-0.93-0.52-2.17-0.77-3.72-0.77
				h-1.76v-1.47h22.63L258.03,486.52z"/>
			<path class="st2" d="M327.77,503.38v1.47H298.8v-1.47h1.84c1.61,0,2.9-0.28,3.88-0.83c0.71-0.37,1.25-1.01,1.64-1.91
				c0.3-0.63,0.45-2.3,0.45-5v-35.39c0-2.75-0.15-4.47-0.45-5.16c-0.3-0.69-0.91-1.29-1.82-1.81c-0.91-0.52-2.15-0.77-3.7-0.77
				h-1.84v-1.47h28.96v1.47h-1.84c-1.61,0-2.9,0.28-3.88,0.83c-0.71,0.37-1.27,1.01-1.68,1.9c-0.3,0.63-0.45,2.3-0.45,5v35.39
				c0,2.75,0.16,4.47,0.47,5.16c0.31,0.69,0.93,1.29,1.84,1.81c0.91,0.52,2.15,0.77,3.7,0.77H327.77z"/>
			<path class="st2" d="M350.52,451.04l27.33,33.37v-23.13c0-3.23-0.48-5.41-1.43-6.55c-1.31-1.53-3.5-2.28-6.58-2.22v-1.47h18.3
				v1.47c-2.34,0.29-3.92,0.67-4.72,1.13c-0.8,0.46-1.43,1.22-1.88,2.26c-0.45,1.05-0.68,2.84-0.68,5.38v44.8h-1.39l-37.47-44.8
				v34.2c0,3.1,0.73,5.18,2.19,6.27c1.46,1.08,3.13,1.63,5,1.63h1.31v1.47h-19.65v-1.47c3.05-0.03,5.18-0.63,6.37-1.83
				c1.2-1.19,1.8-3.21,1.8-6.07v-37.97l-1.19-1.43c-1.17-1.43-2.21-2.37-3.11-2.82c-0.9-0.45-2.19-0.7-3.88-0.75v-1.47H350.52z"/>
			<path class="st2" d="M412.91,454.14v21.9h1.1c3.51,0,6.06-1.07,7.64-3.22c1.58-2.14,2.59-5.3,3.02-9.48h1.55v28.17h-1.55
				c-0.33-3.07-1.01-5.58-2.06-7.54c-1.05-1.96-2.27-3.27-3.66-3.95c-1.39-0.68-3.4-1.01-6.05-1.01v15.16
				c0,2.96,0.13,4.78,0.39,5.44c0.26,0.66,0.74,1.2,1.45,1.63c0.71,0.42,1.85,0.63,3.43,0.63h3.31c5.18,0,9.32-1.16,12.44-3.49
				c3.12-2.33,5.36-5.87,6.72-10.63h1.51l-2.49,17.1h-47.88v-1.47h1.84c1.61,0,2.9-0.28,3.88-0.83c0.71-0.37,1.25-1.01,1.64-1.91
				c0.3-0.63,0.45-2.3,0.45-5v-35.39c0-2.43-0.07-3.93-0.21-4.48c-0.27-0.93-0.78-1.64-1.51-2.14c-1.04-0.74-2.45-1.11-4.25-1.11
				h-1.84v-1.47h46.37v15.91h-1.55c-0.79-3.89-1.9-6.68-3.33-8.37c-1.43-1.69-3.45-2.94-6.07-3.73c-1.52-0.48-4.39-0.71-8.58-0.71
				H412.91z"/>
			<path class="st2" d="M466.76,451.04l27.33,33.37v-23.13c0-3.23-0.48-5.41-1.43-6.55c-1.31-1.53-3.5-2.28-6.58-2.22v-1.47h18.3
				v1.47c-2.34,0.29-3.92,0.67-4.72,1.13c-0.8,0.46-1.43,1.22-1.88,2.26c-0.45,1.05-0.68,2.84-0.68,5.38v44.8h-1.39l-37.47-44.8
				v34.2c0,3.1,0.73,5.18,2.19,6.27c1.46,1.08,3.13,1.63,5,1.63h1.31v1.47H447.1v-1.47c3.05-0.03,5.18-0.63,6.37-1.83
				c1.2-1.19,1.8-3.21,1.8-6.07v-37.97l-1.19-1.43c-1.17-1.43-2.21-2.37-3.11-2.82c-0.9-0.45-2.19-0.7-3.88-0.75v-1.47H466.76z"/>
			<path class="st2" d="M559.13,451.04v14.56h-1.47c-0.87-3.36-1.84-5.78-2.9-7.24c-1.06-1.47-2.52-2.64-4.37-3.51
				c-1.04-0.48-2.85-0.71-5.43-0.71h-4.13v41.5c0,2.75,0.16,4.47,0.47,5.16c0.31,0.69,0.93,1.29,1.84,1.81
				c0.91,0.52,2.16,0.77,3.74,0.77h1.84v1.47h-29.01v-1.47h1.84c1.61,0,2.9-0.28,3.88-0.83c0.71-0.37,1.27-1.01,1.68-1.91
				c0.3-0.63,0.45-2.3,0.45-5v-41.5h-4c-3.73,0-6.44,0.77-8.13,2.3c-2.37,2.14-3.87,5.2-4.49,9.17h-1.55v-14.56H559.13z"/>
			<path class="st2" d="M173.82,554.88l-2.08,18.89h-49.19v-1.47h1.84c1.61,0,2.9-0.28,3.88-0.83c0.71-0.37,1.25-1.01,1.63-1.91
				c0.3-0.63,0.45-2.3,0.45-5v-35.39c0-2.75-0.15-4.47-0.45-5.16c-0.3-0.69-0.91-1.29-1.82-1.81c-0.91-0.52-2.15-0.77-3.7-0.77
				h-1.84v-1.47h29.54v1.47h-2.41c-1.61,0-2.9,0.28-3.88,0.83c-0.71,0.37-1.27,1.01-1.67,1.9c-0.3,0.63-0.45,2.3-0.45,5v34.28
				c0,2.75,0.16,4.5,0.49,5.26c0.33,0.75,0.97,1.32,1.92,1.69c0.68,0.24,2.33,0.36,4.94,0.36h4.62c2.94,0,5.39-0.5,7.35-1.51
				c1.96-1.01,3.66-2.59,5.09-4.76c1.43-2.17,2.78-5.37,4.06-9.6H173.82z"/>
			<path class="st2" d="M200.71,568.3c-4.66,3.99-8.84,5.99-12.54,5.99c-2.18,0-3.99-0.69-5.43-2.08c-1.44-1.39-2.17-3.13-2.17-5.22
				c0-2.83,1.25-5.38,3.76-7.64c2.51-2.26,7.97-5.27,16.38-9.03v-3.73c0-2.8-0.16-4.57-0.47-5.3c-0.31-0.73-0.91-1.36-1.78-1.9
				c-0.87-0.54-1.85-0.81-2.94-0.81c-1.77,0-3.23,0.38-4.37,1.15c-0.71,0.48-1.06,1.03-1.06,1.67c0,0.56,0.38,1.24,1.14,2.06
				c1.04,1.14,1.55,2.24,1.55,3.29c0,1.3-0.5,2.4-1.49,3.31c-0.99,0.91-2.29,1.37-3.9,1.37c-1.72,0-3.15-0.5-4.31-1.51
				c-1.16-1.01-1.74-2.18-1.74-3.53c0-1.91,0.78-3.72,2.33-5.46c1.55-1.73,3.72-3.06,6.5-3.99c2.78-0.93,5.66-1.39,8.66-1.39
				c3.62,0,6.49,0.75,8.6,2.24c2.11,1.5,3.48,3.12,4.11,4.86c0.38,1.11,0.57,3.66,0.57,7.66v14.4c0,1.69,0.07,2.76,0.2,3.19
				c0.14,0.44,0.34,0.76,0.61,0.97c0.27,0.21,0.59,0.32,0.94,0.32c0.71,0,1.43-0.49,2.17-1.47l1.22,0.95
				c-1.36,1.96-2.77,3.38-4.23,4.27c-1.46,0.89-3.11,1.33-4.96,1.33c-2.18,0-3.88-0.5-5.11-1.49
				C201.73,571.81,200.98,570.31,200.71,568.3z M200.71,565.4v-12.42c-3.3,1.88-5.75,3.89-7.35,6.03c-1.06,1.43-1.59,2.87-1.59,4.33
				c0,1.22,0.45,2.29,1.35,3.21c0.68,0.71,1.63,1.07,2.86,1.07C197.33,567.62,198.91,566.88,200.71,565.4z"/>
			<path class="st2" d="M259.34,574.88l-10.46-27.22l-10.25,27.22h-2.13l-10.17-26.9c-1.53-4.1-2.82-6.77-3.88-8.02
				c-0.68-0.85-1.72-1.46-3.11-1.83v-1.47h19.28v1.47c-1.31,0-2.21,0.19-2.7,0.56c-0.49,0.37-0.74,0.79-0.74,1.27
				c0,0.45,0.44,1.8,1.31,4.05l5.6,14.48l5.39-14.48l-0.41-0.95c-0.82-1.98-1.53-3.25-2.14-3.79c-0.61-0.54-1.56-0.92-2.84-1.13
				v-1.47h19.57v1.47c-1.53,0.08-2.49,0.29-2.9,0.62c-0.41,0.33-0.61,0.8-0.61,1.41c0,0.58,0.39,1.86,1.19,3.85l5.39,14.48
				l4.9-13.33c0.71-1.91,1.06-3.2,1.06-3.89c0-1.03-0.26-1.79-0.78-2.26c-0.52-0.48-1.52-0.77-3.02-0.87v-1.47h11.32v1.47
				c-1.25,0.16-2.25,0.59-2.98,1.29c-0.74,0.7-1.69,2.69-2.86,5.97l-10.7,29.48H259.34z"/>
			<path class="st2" d="M322.99,523.06v22.1h1.59c2.45,0,4.45-0.36,6.01-1.07c1.55-0.71,2.87-1.92,3.94-3.61
				c1.08-1.69,1.78-3.98,2.1-6.86h1.43v27.02h-1.43c-0.52-5.1-1.93-8.47-4.23-10.1c-2.3-1.63-4.91-2.44-7.82-2.44h-1.59v16.47
				c0,2.75,0.16,4.47,0.47,5.16c0.31,0.69,0.92,1.29,1.84,1.81c0.91,0.52,2.15,0.77,3.7,0.77h1.84v1.47h-28.97v-1.47h1.84
				c1.61,0,2.9-0.28,3.88-0.83c0.71-0.37,1.25-1.01,1.64-1.91c0.3-0.63,0.45-2.3,0.45-5v-35.39c0-2.75-0.15-4.47-0.45-5.16
				c-0.3-0.69-0.91-1.29-1.82-1.81c-0.91-0.52-2.15-0.77-3.7-0.77h-1.84v-1.47h46.74v15.44h-1.67c-0.38-3.62-1.36-6.31-2.92-8.05
				c-1.57-1.74-3.83-2.98-6.8-3.69c-1.63-0.4-4.66-0.6-9.07-0.6H322.99z"/>
			<path class="st2" d="M368.83,536.67v29.4c0,2.62,0.31,4.29,0.94,5.02c0.63,0.73,1.85,1.14,3.68,1.25v1.43h-20.63v-1.43
				c1.69-0.05,2.94-0.53,3.76-1.43c0.54-0.61,0.82-2.22,0.82-4.84v-21.67c0-2.62-0.31-4.29-0.94-5.02
				c-0.63-0.73-1.84-1.14-3.64-1.25v-1.47H368.83z M363.11,518.7c1.77,0,3.27,0.6,4.49,1.81c1.23,1.2,1.84,2.65,1.84,4.35
				s-0.62,3.13-1.86,4.32c-1.24,1.19-2.73,1.79-4.47,1.79c-1.74,0-3.23-0.6-4.45-1.79c-1.23-1.19-1.84-2.63-1.84-4.32
				s0.61-3.14,1.84-4.35C359.88,519.3,361.36,518.7,363.11,518.7z"/>
			<path class="st2" d="M393.01,536.67v8.41c2.53-3.83,4.75-6.38,6.66-7.64c1.91-1.26,3.75-1.89,5.52-1.89
				c1.52,0,2.74,0.46,3.66,1.37c0.91,0.91,1.37,2.2,1.37,3.87c0,1.77-0.44,3.15-1.33,4.13c-0.89,0.98-1.96,1.47-3.21,1.47
				c-1.44,0-2.7-0.45-3.76-1.35c-1.06-0.9-1.69-1.4-1.88-1.51c-0.27-0.16-0.59-0.24-0.94-0.24c-0.79,0-1.54,0.29-2.25,0.87
				c-1.12,0.9-1.96,2.18-2.53,3.85c-0.87,2.57-1.31,5.4-1.31,8.49v8.53l0.04,2.22c0,1.51,0.1,2.47,0.29,2.9
				c0.33,0.71,0.81,1.24,1.45,1.57c0.64,0.33,1.72,0.54,3.25,0.62v1.43h-20.63v-1.43c1.66-0.13,2.79-0.58,3.37-1.33
				c0.59-0.75,0.88-2.74,0.88-5.97v-20.51c0-2.12-0.11-3.46-0.33-4.05c-0.27-0.74-0.67-1.28-1.19-1.63s-1.43-0.58-2.74-0.71v-1.47
				H393.01z"/>
			<path class="st2" d="M430.15,536.67v4.88c2.1-2.22,4.04-3.78,5.82-4.66c1.78-0.89,3.74-1.33,5.86-1.33
				c2.45,0,4.51,0.56,6.17,1.67c1.66,1.11,2.94,2.81,3.84,5.08c2.18-2.38,4.27-4.1,6.27-5.16c2-1.06,4.09-1.59,6.27-1.59
				c2.64,0,4.75,0.59,6.31,1.77c1.57,1.18,2.66,2.67,3.27,4.48c0.61,1.81,0.92,4.7,0.92,8.67v15.2c0,2.86,0.27,4.63,0.8,5.32
				c0.53,0.69,1.64,1.14,3.33,1.35v1.43h-19.73v-1.43c1.55-0.13,2.7-0.71,3.43-1.75c0.49-0.71,0.74-2.35,0.74-4.92v-15.95
				c0-3.31-0.14-5.41-0.41-6.31c-0.27-0.9-0.7-1.57-1.29-2c-0.59-0.44-1.27-0.65-2.06-0.65c-1.17,0-2.36,0.42-3.55,1.25
				c-1.2,0.83-2.41,2.08-3.64,3.75v19.92c0,2.67,0.23,4.35,0.69,5.04c0.63,0.98,1.82,1.52,3.6,1.63v1.43h-19.77v-1.43
				c1.06-0.05,1.9-0.31,2.51-0.78c0.61-0.46,1.02-1.02,1.23-1.67c0.21-0.65,0.31-2.05,0.31-4.23v-15.95c0-3.36-0.14-5.46-0.41-6.31
				c-0.27-0.84-0.73-1.51-1.37-1.98c-0.64-0.48-1.33-0.71-2.06-0.71c-1.09,0-2.08,0.28-2.98,0.83c-1.28,0.82-2.64,2.22-4.09,4.21
				v19.92c0,2.62,0.27,4.35,0.8,5.18c0.53,0.83,1.64,1.33,3.33,1.49v1.43h-19.69v-1.43c1.61-0.16,2.75-0.66,3.43-1.51
				c0.46-0.58,0.7-2.3,0.7-5.16v-20.95c0-2.8-0.27-4.55-0.8-5.24c-0.53-0.69-1.64-1.14-3.33-1.35v-1.47H430.15z"/>
		</g>
	</g>
	<g>
		<linearGradient id="SVGID_1_" gradientUnits="userSpaceOnUse" x1="186.9314" y1="292.3733" x2="255.6049" y2="292.3733">
			<stop  offset="0" style="stop-color:#957444"/>
			<stop  offset="1" style="stop-color:#ECB371"/>
		</linearGradient>
		<path class="st3" d="M247.93,258.7c-5.12-4.07-13.55-6.1-25.31-6.1h-35.7v2.17c3.74,0,6.3,0.34,7.67,1
			c1.37,0.67,2.33,1.56,2.87,2.67c0.54,1.12,0.82,3.82,0.82,8.13v51.62c0,4.3-0.27,7-0.82,8.09c-0.55,1.1-1.49,1.99-2.84,2.67
			c-1.35,0.69-3.92,1.03-7.7,1.03v2.17h41.61v-2.17c-3.7,0-6.25-0.33-7.64-1c-1.39-0.66-2.36-1.55-2.9-2.67
			c-0.55-1.11-0.82-3.82-0.82-8.12v-22.06c9.3,0,15.9-0.47,19.81-1.41c5.8-1.33,10.35-3.83,13.65-7.51c3.3-3.68,4.95-8.1,4.95-13.26
			C255.6,267.86,253.05,262.77,247.93,258.7z M231.57,287.42c-2.66,2.84-6.44,4.25-11.36,4.25c-0.69,0-1.69-0.04-3.02-0.12v-34.38
			h2.48c5.27,0,9.24,1.37,11.9,4.11c2.66,2.74,3.99,7.06,3.99,12.96C235.56,280.19,234.22,284.58,231.57,287.42z"/>
		
			<linearGradient id="SVGID_00000112612541851804102670000005788559521950758277_" gradientUnits="userSpaceOnUse" x1="344.6364" y1="292.3748" x2="413.7246" y2="292.3748">
			<stop  offset="0" style="stop-color:#957444"/>
			<stop  offset="1" style="stop-color:#ECB371"/>
		</linearGradient>
		<path style="fill:url(#SVGID_00000112612541851804102670000005788559521950758277_);" d="M344.64,252.6v2.16h2.72
			c2.29,0,4.11,0.39,5.46,1.15c1.35,0.76,2.25,1.65,2.69,2.67c0.44,1.02,0.67,3.56,0.67,7.63v52.32c0,2.7-0.1,4.7-0.3,5.99v7.62
			h31.59v-2.17h-2.72c-2.29,0-4.12-0.38-5.46-1.14c-1.35-0.76-2.26-1.65-2.72-2.67c-0.47-1.02-0.7-3.55-0.7-7.63v-24.35h2.35
			c4.31,0,8.16,1.21,11.56,3.61c3.4,2.41,5.49,7.38,6.26,14.93h2.11v-39.96h-2.11c-0.49,4.27-1.52,7.65-3.11,10.15
			c-1.59,2.5-3.54,4.29-5.84,5.34c-2.29,1.05-5.26,1.58-8.88,1.58h-2.35v-32.68h7.6c6.53,0,11,0.3,13.42,0.88
			c4.39,1.06,7.74,2.88,10.06,5.46c2.31,2.58,3.76,6.55,4.31,11.91h2.47V252.6H344.64z"/>
		<g>
			
				<linearGradient id="SVGID_00000101813511098836491990000013956701757080295599_" gradientUnits="userSpaceOnUse" x1="298.1091" y1="134.7956" x2="301.0923" y2="332.8815">
				<stop  offset="0" style="stop-color:#DAB077"/>
				<stop  offset="0.1361" style="stop-color:#D2AA72"/>
				<stop  offset="0.3096" style="stop-color:#BF9A64"/>
				<stop  offset="0.4296" style="stop-color:#AD8B57"/>
				<stop  offset="0.5818" style="stop-color:#A68654"/>
				<stop  offset="0.7758" style="stop-color:#93784B"/>
				<stop  offset="0.8229" style="stop-color:#8D7448"/>
			</linearGradient>
			<path style="fill:url(#SVGID_00000101813511098836491990000013956701757080295599_);" d="M523.06,280.23h-9.22
				c-0.01-0.03-0.01-0.05-0.01-0.08l-30.86-79.36c2.27,0.03,4.41-0.07,6.35-0.36c21.47-0.67,35.48-23.77,19.28-39.83
				c-3.52-4.24-20.19-11.3-21.24-2.47c-0.07,2.34,1.83,4.3,4.25,4.38c7.73,0.07,14.25,7.12,13.55,14.44
				c-11.41,41.64-112.53-44.78-200.16,1.98v-7.77c8.27-2.02,14.39-9.26,14.39-17.91c0-10.21-8.52-18.49-19.04-18.49
				c-10.51,0-19.04,8.28-19.04,18.49c0,8.65,6.13,15.89,14.39,17.91v7.82c-11.99-6.33-25.08-10.68-38.34-12.71
				c-34.31-5.4-68.17,2.93-100.2,12.49c-15.01,3.97-30.28,10.51-45.77,9.79c-11.95,0.17-21.26-11.57-12.37-21.46
				c2.5-2.75,6.18-4.46,10.07-4.58c2.29-0.08,4.18-1.87,4.25-4.13c0.07-2.34-1.83-4.3-4.25-4.38c-12.96-0.55-24.47,10.69-24.03,23.4
				c-0.03,13.62,16.06,23.14,25.48,22.96c2.43,0.26,4.83,0.36,7.22,0.34l-30.88,79.44c-0.01,0.03-0.01,0.05-0.01,0.08h-9.22
				c-3.21,0-5.73,2.84-5.07,5.89c3.61,16.68,22.3,29.39,44.81,29.39h12.56v-0.03c22.14-0.32,40.42-12.89,43.98-29.36
				c0.66-3.05-1.86-5.88-5.06-5.88h-9.22c-0.01-0.03-0.01-0.05-0.01-0.08l-31.19-80.24c11.05-1.51,21.84-4.8,32.68-7.05
				c41.93-10.48,90.58-17.46,127.4,7.93v14.85H194.1c-4.26,0-7.71,3.35-7.71,7.49v7.97c0,4.14,3.45,7.49,7.71,7.49h96.22
				c0.2,9.69,0.31,24.86,0.31,27.64v52.32c0,3.99-0.22,6.45-0.67,7.39c-0.57,1.33-1.37,2.27-2.42,2.81
				c-1.45,0.82-3.36,1.23-5.74,1.23h-2.72v2.17h70.76l3.08-27.92h-2.48c-1.89,6.26-3.9,10.99-6.01,14.19
				c-2.11,3.21-4.61,5.56-7.52,7.04c-2.9,1.48-4.56,2.23-8.91,2.23h-6.82c-3.87,0-6.3-0.18-7.31-0.53
				c-1.41-0.54-2.35-1.38-2.84-2.49c-0.48-1.12-0.73-3.7-0.73-7.77v-50.69c0-2.73,0.11-18.01,0.31-27.64h96.02
				c4.26,0,7.71-3.35,7.71-7.49v-7.97c0-4.14-3.45-7.49-7.71-7.49h-94.47v-14.8c10.46-7.08,22.32-12.13,35.03-14.84
				c30.31-6.53,62.13-0.32,92.38,6.86c9.69,2.18,21.8,5.42,32.7,7.01l-31.21,80.29c-0.01,0.03-0.01,0.05-0.01,0.08h-9.23
				c-3.2,0-5.72,2.83-5.06,5.88c3.56,16.47,21.84,29.04,43.98,29.36v0.03h12.56c22.51,0,41.2-12.71,44.81-29.39
				C528.79,283.07,526.27,280.23,523.06,280.23z M121.23,280.23H92.02l29.21-75.15V280.23z M154.57,280.23h-28.55v-73.44
				L154.57,280.23z M474.72,280.23h-28.54l28.54-73.44V280.23z M479.52,280.23v-75.15l29.21,75.15H479.52z"/>
		</g>
		
			<linearGradient id="SVGID_00000057116909052539533960000002858486553083446197_" gradientUnits="userSpaceOnUse" x1="300.3999" y1="68.7906" x2="300.3999" y2="166.4424">
			<stop  offset="0" style="stop-color:#DAB077"/>
			<stop  offset="0.1361" style="stop-color:#D2AA72"/>
			<stop  offset="0.3096" style="stop-color:#BF9A64"/>
			<stop  offset="0.4296" style="stop-color:#AD8B57"/>
			<stop  offset="0.5818" style="stop-color:#A68654"/>
			<stop  offset="0.7758" style="stop-color:#93784B"/>
			<stop  offset="0.8229" style="stop-color:#8D7448"/>
		</linearGradient>
		
			<path style="fill:none;stroke:url(#SVGID_00000057116909052539533960000002858486553083446197_);stroke-width:4.396;stroke-linecap:round;stroke-linejoin:round;stroke-miterlimit:10;" d="
			M143.25,164.14c29.3-55.32,88.66-93.15,157.12-93.15c68.5,0,127.89,37.88,157.17,93.26"/>
		
			<linearGradient id="SVGID_00000167359781166972065290000000107006324049696136_" gradientUnits="userSpaceOnUse" x1="300.3733" y1="328.5451" x2="300.3733" y2="416.2019">
			<stop  offset="0" style="stop-color:#DAB077"/>
			<stop  offset="0.1361" style="stop-color:#D2AA72"/>
			<stop  offset="0.3096" style="stop-color:#BF9A64"/>
			<stop  offset="0.4296" style="stop-color:#AD8B57"/>
			<stop  offset="0.5818" style="stop-color:#A68654"/>
			<stop  offset="0.7758" style="stop-color:#93784B"/>
			<stop  offset="0.8229" style="stop-color:#8D7448"/>
		</linearGradient>
		
			<path style="fill:none;stroke:url(#SVGID_00000167359781166972065290000000107006324049696136_);stroke-width:4.396;stroke-linecap:round;stroke-linejoin:round;stroke-miterlimit:10;" d="
			M148.93,330.74C179.8,380.63,236.08,414,300.37,414c64.3,0,120.57-33.37,151.44-83.26"/>
	</g>
</g>
<g>
	<g>
		<path d="M139.91,108.84l11.61-11.65c1.97-1.97,4.09-3.05,6.38-3.22c2.29-0.18,4.22,0.48,5.8,1.96c1.2,1.13,1.9,2.46,2.11,4.01
			c0.21,1.54-0.07,3.09-0.83,4.64c-0.76,1.55-1.71,2.9-2.86,4.05l-3.67,3.68l6.67,6.27c0.37,0.35,0.76,0.52,1.17,0.5
			c0.41-0.01,0.77-0.19,1.1-0.51l2.28-2.29l1.29,1.21l-10.56,10.6l-1.29-1.21l1.77-1.77c0.39-0.4,0.59-0.79,0.59-1.18
			c0-0.39-0.19-0.76-0.56-1.11l-15.6-14.67c-0.35-0.33-0.73-0.49-1.14-0.47c-0.41,0.01-0.76,0.17-1.06,0.47l-1.9,1.91L139.91,108.84
			z M157.19,111.12l2.45-2.46c0.86-0.86,1.43-1.8,1.72-2.83c0.29-1.02,0.3-1.93,0.04-2.72c-0.26-0.79-0.99-1.75-2.2-2.89
			c-1.66-1.56-3.27-2.23-4.82-2c-1.12,0.18-2.45,1.03-3.98,2.56c-0.88,0.89-1.37,1.52-1.45,1.9c-0.08,0.38,0.06,0.75,0.43,1.09
			L157.19,111.12z"/>
		<path d="M170.39,80.54l12.31-8.12c2-1.32,3.8-2.14,5.41-2.47c1.61-0.33,3.02-0.27,4.24,0.19c1.22,0.45,2.19,1.21,2.93,2.26
			c1.18,1.68,1.35,3.56,0.53,5.62c-0.62,1.57-2.08,3.29-4.37,5.14c1.37-0.62,2.54-0.93,3.5-0.94c0.96-0.01,2,0.24,3.1,0.76
			c1.45,0.67,2.93,1.65,4.45,2.92c0.97,0.83,1.64,1.3,2.02,1.43c0.38,0.12,0.7,0.1,0.96-0.06c0.7-0.46,0.49-1.65-0.63-3.54l1.4-0.92
			c1.24,1.99,1.76,3.66,1.56,5s-1,2.48-2.41,3.41c-1.01,0.67-1.96,1-2.85,1c-0.89,0-1.77-0.28-2.63-0.84
			c-0.5-0.32-1.5-1.19-2.98-2.6c-1.73-1.66-2.99-2.72-3.77-3.17c-0.77-0.45-1.53-0.68-2.25-0.67c-0.72,0.01-1.45,0.26-2.18,0.74
			l-1.74,1.14l5.9,8.44c0.26,0.37,0.57,0.58,0.93,0.63c0.5,0.05,0.96-0.07,1.39-0.35l2.14-1.41l1.01,1.44l-11.94,7.88l-1.01-1.44
			l1.85-1.22c0.48-0.32,0.75-0.68,0.83-1.08c0.08-0.4-0.04-0.82-0.34-1.25l-12.07-17.26c-0.33-0.48-0.69-0.75-1.06-0.83
			c-0.38-0.07-0.77,0.02-1.19,0.3l-2.01,1.33L170.39,80.54z M186.01,85.41L188,84.1c1.76-1.16,2.85-2.52,3.26-4.07
			c0.3-1.18-0.11-2.56-1.22-4.15c-1.02-1.47-2.15-2.29-3.38-2.47c-1.23-0.18-2.77,0.35-4.63,1.58c-1,0.66-1.55,1.18-1.66,1.56
			c-0.11,0.38,0.09,0.94,0.61,1.67L186.01,85.41z"/>
		<path d="M221.06,51.91c2.49-0.97,5.03-1.29,7.62-0.94c2.59,0.35,4.89,1.3,6.89,2.86c2.01,1.56,3.54,3.61,4.59,6.14
			c1.6,3.85,1.63,7.57,0.1,11.15c-1.53,3.58-4.21,6.12-8.05,7.62c-2.55,1-5.08,1.3-7.58,0.93c-2.5-0.38-4.75-1.34-6.74-2.86
			c-1.99-1.53-3.53-3.6-4.61-6.23c-1.61-3.9-1.66-7.61-0.15-11.15C214.64,55.88,217.29,53.38,221.06,51.91z M221.86,53.53
			c-1.42,0.55-2.49,1.41-3.22,2.58c-0.73,1.16-1.05,2.71-0.97,4.64c0.08,1.93,0.74,4.36,1.95,7.3c1.28,3.09,2.53,5.32,3.75,6.69
			c1.22,1.37,2.54,2.22,3.94,2.56c1.4,0.34,2.82,0.23,4.26-0.34c2.13-0.83,3.47-2.39,4.01-4.66c0.54-2.27-0.1-5.61-1.92-10
			c-1.27-3.08-2.5-5.28-3.69-6.61c-1.19-1.33-2.48-2.16-3.88-2.5C224.71,52.86,223.29,52.97,221.86,53.53z"/>
		<path d="M250.47,42.71l11.35-1.66l9.28,17.6l3.49-19.48l11.64-1.71l0.27,1.72l-2.53,0.37c-0.63,0.09-1.04,0.27-1.24,0.52
			c-0.2,0.25-0.26,0.66-0.18,1.2l3.25,20.91c0.08,0.53,0.27,0.88,0.55,1.04c0.43,0.24,0.97,0.31,1.62,0.22l2.24-0.33l0.27,1.72
			l-14.35,2.11l-0.27-1.72l2.71-0.4c0.5-0.07,0.85-0.26,1.07-0.57c0.22-0.31,0.29-0.7,0.21-1.19l-3.48-22.39l-4.97,26.96l-1.68,0.25
			l-12.95-24.56l3.11,20.01c0.18,1.15,0.7,2.03,1.57,2.66c0.86,0.63,2.02,0.91,3.46,0.84l0.27,1.72l-10.46,1.54l-0.27-1.72
			c1.3-0.3,2.26-0.9,2.87-1.8c0.61-0.89,0.81-1.96,0.63-3.18l-2.75-17.69c-0.12-0.75-0.33-1.24-0.63-1.44
			c-0.3-0.21-0.84-0.25-1.6-0.14l-2.23,0.33L250.47,42.71z"/>
		<path d="M301.07,37.64l14.6,0.54l-0.07,1.74l-2.64-0.1c-0.56-0.02-0.98,0.07-1.24,0.28c-0.27,0.21-0.41,0.53-0.42,0.95
			l-0.84,21.41c-0.02,0.5,0.1,0.86,0.36,1.08c0.34,0.29,0.83,0.44,1.49,0.47l2.35,0.09l-0.07,1.74l-14.6-0.54l0.07-1.74l2.23,0.08
			c0.77,0.03,1.32-0.07,1.64-0.31c0.32-0.24,0.5-0.6,0.52-1.09l0.83-21.17c0.02-0.52-0.11-0.91-0.39-1.17
			c-0.28-0.26-0.73-0.4-1.34-0.43L301,39.38L301.07,37.64z"/>
		<path d="M330.24,39.31l8.65,1.82l10.95,21.72l2.81-12.6c0.28-1.24,0.14-2.32-0.43-3.22c-0.56-0.9-1.5-1.54-2.83-1.91l0.38-1.7
			l10.17,2.14l-0.38,1.7c-1.45-0.15-2.56,0.05-3.33,0.59c-0.77,0.55-1.3,1.48-1.59,2.82l-4.71,21.11l-2.18-0.46l-12.4-24.95
			l-3.3,14.78c-0.38,1.69-0.25,3.01,0.37,3.95c0.62,0.94,1.53,1.54,2.71,1.78l0.47,0.1l-0.38,1.7l-11.25-2.37l0.38-1.7l0.77,0.16
			c1.1,0.23,2.13,0,3.07-0.69c0.94-0.7,1.56-1.71,1.86-3.05l3.89-17.46c-0.6-1.26-1.55-2.02-2.86-2.3l-1.24-0.26L330.24,39.31z"/>
		<path d="M374.09,50.27l22.64,9.89l-3.58,9.05l-1.54-0.68c0.6-2.24,0.84-3.94,0.72-5.09c-0.12-1.15-0.52-2.15-1.19-2.99
			c-0.68-0.84-1.73-1.58-3.16-2.2l-3.55-1.55c-0.55-0.24-1-0.31-1.34-0.2c-0.35,0.1-0.6,0.34-0.77,0.71l-4.06,8.76l1.21,0.53
			c1.39,0.61,2.65,0.7,3.78,0.26c1.13-0.44,2.16-1.48,3.09-3.14l1.58,0.69l-5.44,11.74l-1.58-0.69c0.8-1.99,0.99-3.55,0.59-4.69
			c-0.4-1.13-1.39-2.04-2.94-2.72l-1-0.43l-4.32,9.33c-0.19,0.41-0.2,0.75-0.03,1.03c0.26,0.42,0.74,0.78,1.44,1.08l3.13,1.37
			c2.14,0.93,4.2,1.03,6.18,0.3c1.97-0.74,3.75-2.38,5.32-4.92l1.58,0.69L386,85.83l-23.6-10.31l0.73-1.59l2.34,1.02
			c0.53,0.23,0.99,0.28,1.39,0.14c0.4-0.14,0.7-0.43,0.9-0.88l9-19.42c0.19-0.41,0.19-0.77,0-1.08c-0.19-0.31-0.64-0.63-1.35-0.94
			l-2.06-0.9L374.09,50.27z"/>
		<path d="M412.16,68.44l7.15,5.06l0.96,24.17l7.82-10.42c0.77-1.03,1.09-2.07,0.95-3.11c-0.14-1.05-0.73-2-1.79-2.86l1.06-1.41
			l8.41,5.95l-1.06,1.41c-1.26-0.71-2.36-0.97-3.29-0.77c-0.93,0.2-1.81,0.85-2.63,1.95l-13.1,17.45l-1.8-1.27L413.9,76.9
			l-9.18,12.22c-1.05,1.4-1.49,2.65-1.31,3.76c0.18,1.11,0.75,2.01,1.73,2.69l0.39,0.27l-1.06,1.41l-9.3-6.58l1.06-1.41l0.64,0.45
			c0.91,0.65,1.95,0.84,3.1,0.58c1.15-0.26,2.15-0.95,2.98-2.06l10.84-14.44c-0.03-1.38-0.58-2.46-1.66-3.22l-1.03-0.73
			L412.16,68.44z"/>
		<path d="M447.93,96.02l16.76,17.9l-7.59,7.53l-1.18-1.26c1.44-1.81,2.41-3.37,2.93-4.69c0.52-1.32,0.7-2.46,0.54-3.42
			c-0.16-0.96-0.58-1.8-1.26-2.52c-0.39-0.42-0.76-0.64-1.12-0.68c-0.36-0.04-0.7,0.09-1.03,0.39l-16.31,14.4
			c-0.31,0.28-0.48,0.6-0.5,0.96c-0.02,0.37,0.09,0.68,0.34,0.95l2.18,2.33l-1.32,1.17l-10.25-10.95l1.32-1.17l2.07,2.22
			c0.31,0.33,0.66,0.51,1.03,0.53c0.38,0.02,0.73-0.11,1.05-0.39l16.22-14.33c0.38-0.34,0.57-0.68,0.56-1.04
			c-0.01-0.36-0.21-0.75-0.6-1.17c-2.2-2.35-5.91-1.99-11.13,1.1l-1.14-1.22L447.93,96.02z"/>
	</g>
	<g>
		
			<linearGradient id="SVGID_00000016754935955241991160000005910828362057167031_" gradientUnits="userSpaceOnUse" x1="146.912" y1="83.2694" x2="471.6937" y2="83.2694" gradientTransform="matrix(1 0 0 1 -7 0)">
			<stop  offset="0" style="stop-color:#C49A6C"/>
			<stop  offset="1" style="stop-color:#603913"/>
		</linearGradient>
		<path style="fill:url(#SVGID_00000016754935955241991160000005910828362057167031_);" d="M139.91,108.84l11.61-11.65
			c1.97-1.97,4.09-3.05,6.38-3.22c2.29-0.18,4.22,0.48,5.8,1.96c1.2,1.13,1.9,2.46,2.11,4.01c0.21,1.54-0.07,3.09-0.83,4.64
			c-0.76,1.55-1.71,2.9-2.86,4.05l-3.67,3.68l6.67,6.27c0.37,0.35,0.76,0.52,1.17,0.5c0.41-0.01,0.77-0.19,1.1-0.51l2.28-2.29
			l1.29,1.21l-10.56,10.6l-1.29-1.21l1.77-1.77c0.39-0.4,0.59-0.79,0.59-1.18c0-0.39-0.19-0.76-0.56-1.11l-15.6-14.67
			c-0.35-0.33-0.73-0.49-1.14-0.47c-0.41,0.01-0.76,0.17-1.06,0.47l-1.9,1.91L139.91,108.84z M157.19,111.12l2.45-2.46
			c0.86-0.86,1.43-1.8,1.72-2.83c0.29-1.02,0.3-1.93,0.04-2.72c-0.26-0.79-0.99-1.75-2.2-2.89c-1.66-1.56-3.27-2.23-4.82-2
			c-1.12,0.18-2.45,1.03-3.98,2.56c-0.88,0.89-1.37,1.52-1.45,1.9c-0.08,0.38,0.06,0.75,0.43,1.09L157.19,111.12z"/>
		
			<linearGradient id="SVGID_00000064321565024176182540000004592583770974871717_" gradientUnits="userSpaceOnUse" x1="146.912" y1="83.2694" x2="471.6937" y2="83.2694" gradientTransform="matrix(1 0 0 1 -7 0)">
			<stop  offset="0" style="stop-color:#C49A6C"/>
			<stop  offset="1" style="stop-color:#603913"/>
		</linearGradient>
		<path style="fill:url(#SVGID_00000064321565024176182540000004592583770974871717_);" d="M170.39,80.54l12.31-8.12
			c2-1.32,3.8-2.14,5.41-2.47c1.61-0.33,3.02-0.27,4.24,0.19c1.22,0.45,2.19,1.21,2.93,2.26c1.18,1.68,1.35,3.56,0.53,5.62
			c-0.62,1.57-2.08,3.29-4.37,5.14c1.37-0.62,2.54-0.93,3.5-0.94c0.96-0.01,2,0.24,3.1,0.76c1.45,0.67,2.93,1.65,4.45,2.92
			c0.97,0.83,1.64,1.3,2.02,1.43c0.38,0.12,0.7,0.1,0.96-0.06c0.7-0.46,0.49-1.65-0.63-3.54l1.4-0.92c1.24,1.99,1.76,3.66,1.56,5
			s-1,2.48-2.41,3.41c-1.01,0.67-1.96,1-2.85,1c-0.89,0-1.77-0.28-2.63-0.84c-0.5-0.32-1.5-1.19-2.98-2.6
			c-1.73-1.66-2.99-2.72-3.77-3.17c-0.77-0.45-1.53-0.68-2.25-0.67c-0.72,0.01-1.45,0.26-2.18,0.74l-1.74,1.14l5.9,8.44
			c0.26,0.37,0.57,0.58,0.93,0.63c0.5,0.05,0.96-0.07,1.39-0.35l2.14-1.41l1.01,1.44l-11.94,7.88l-1.01-1.44l1.85-1.22
			c0.48-0.32,0.75-0.68,0.83-1.08c0.08-0.4-0.04-0.82-0.34-1.25l-12.07-17.26c-0.33-0.48-0.69-0.75-1.06-0.83
			c-0.38-0.07-0.77,0.02-1.19,0.3l-2.01,1.33L170.39,80.54z M186.01,85.41L188,84.1c1.76-1.16,2.85-2.52,3.26-4.07
			c0.3-1.18-0.11-2.56-1.22-4.15c-1.02-1.47-2.15-2.29-3.38-2.47c-1.23-0.18-2.77,0.35-4.63,1.58c-1,0.66-1.55,1.18-1.66,1.56
			c-0.11,0.38,0.09,0.94,0.61,1.67L186.01,85.41z"/>
		
			<linearGradient id="SVGID_00000179618681400959128570000014378842264285989274_" gradientUnits="userSpaceOnUse" x1="146.912" y1="83.2694" x2="471.6937" y2="83.2694" gradientTransform="matrix(1 0 0 1 -7 0)">
			<stop  offset="0" style="stop-color:#C49A6C"/>
			<stop  offset="1" style="stop-color:#603913"/>
		</linearGradient>
		<path style="fill:url(#SVGID_00000179618681400959128570000014378842264285989274_);" d="M221.06,51.91
			c2.49-0.97,5.03-1.29,7.62-0.94c2.59,0.35,4.89,1.3,6.89,2.86c2.01,1.56,3.54,3.61,4.59,6.14c1.6,3.85,1.63,7.57,0.1,11.15
			c-1.53,3.58-4.21,6.12-8.05,7.62c-2.55,1-5.08,1.3-7.58,0.93c-2.5-0.38-4.75-1.34-6.74-2.86c-1.99-1.53-3.53-3.6-4.61-6.23
			c-1.61-3.9-1.66-7.61-0.15-11.15C214.64,55.88,217.29,53.38,221.06,51.91z M221.86,53.53c-1.42,0.55-2.49,1.41-3.22,2.58
			c-0.73,1.16-1.05,2.71-0.97,4.64c0.08,1.93,0.74,4.36,1.95,7.3c1.28,3.09,2.53,5.32,3.75,6.69c1.22,1.37,2.54,2.22,3.94,2.56
			c1.4,0.34,2.82,0.23,4.26-0.34c2.13-0.83,3.47-2.39,4.01-4.66c0.54-2.27-0.1-5.61-1.92-10c-1.27-3.08-2.5-5.28-3.69-6.61
			c-1.19-1.33-2.48-2.16-3.88-2.5C224.71,52.86,223.29,52.97,221.86,53.53z"/>
		
			<linearGradient id="SVGID_00000057113409075573295030000012934681172135817136_" gradientUnits="userSpaceOnUse" x1="146.912" y1="83.2694" x2="471.6937" y2="83.2694" gradientTransform="matrix(1 0 0 1 -7 0)">
			<stop  offset="0" style="stop-color:#C49A6C"/>
			<stop  offset="1" style="stop-color:#603913"/>
		</linearGradient>
		<path style="fill:url(#SVGID_00000057113409075573295030000012934681172135817136_);" d="M250.47,42.71l11.35-1.66l9.28,17.6
			l3.49-19.48l11.64-1.71l0.27,1.72l-2.53,0.37c-0.63,0.09-1.04,0.27-1.24,0.52c-0.2,0.25-0.26,0.66-0.18,1.2l3.25,20.91
			c0.08,0.53,0.27,0.88,0.55,1.04c0.43,0.24,0.97,0.31,1.62,0.22l2.24-0.33l0.27,1.72l-14.35,2.11l-0.27-1.72l2.71-0.4
			c0.5-0.07,0.85-0.26,1.07-0.57c0.22-0.31,0.29-0.7,0.21-1.19l-3.48-22.39l-4.97,26.96l-1.68,0.25l-12.95-24.56l3.11,20.01
			c0.18,1.15,0.7,2.03,1.57,2.66c0.86,0.63,2.02,0.91,3.46,0.84l0.27,1.72l-10.46,1.54l-0.27-1.72c1.3-0.3,2.26-0.9,2.87-1.8
			c0.61-0.89,0.81-1.96,0.63-3.18l-2.75-17.69c-0.12-0.75-0.33-1.24-0.63-1.44c-0.3-0.21-0.84-0.25-1.6-0.14l-2.23,0.33
			L250.47,42.71z"/>
		
			<linearGradient id="SVGID_00000117678737196936444150000011961611616939366036_" gradientUnits="userSpaceOnUse" x1="146.912" y1="83.2694" x2="471.6937" y2="83.2694" gradientTransform="matrix(1 0 0 1 -7 0)">
			<stop  offset="0" style="stop-color:#C49A6C"/>
			<stop  offset="1" style="stop-color:#603913"/>
		</linearGradient>
		<path style="fill:url(#SVGID_00000117678737196936444150000011961611616939366036_);" d="M301.07,37.64l14.6,0.54l-0.07,1.74
			l-2.64-0.1c-0.56-0.02-0.98,0.07-1.24,0.28c-0.27,0.21-0.41,0.53-0.42,0.95l-0.84,21.41c-0.02,0.5,0.1,0.86,0.36,1.08
			c0.34,0.29,0.83,0.44,1.49,0.47l2.35,0.09l-0.07,1.74l-14.6-0.54l0.07-1.74l2.23,0.08c0.77,0.03,1.32-0.07,1.64-0.31
			c0.32-0.24,0.5-0.6,0.52-1.09l0.83-21.17c0.02-0.52-0.11-0.91-0.39-1.17c-0.28-0.26-0.73-0.4-1.34-0.43L301,39.38L301.07,37.64z"
			/>
		
			<linearGradient id="SVGID_00000170967000635613441170000016453058712044834691_" gradientUnits="userSpaceOnUse" x1="146.912" y1="83.2694" x2="471.6937" y2="83.2694" gradientTransform="matrix(1 0 0 1 -7 0)">
			<stop  offset="0" style="stop-color:#C49A6C"/>
			<stop  offset="1" style="stop-color:#603913"/>
		</linearGradient>
		<path style="fill:url(#SVGID_00000170967000635613441170000016453058712044834691_);" d="M330.24,39.31l8.65,1.82l10.95,21.72
			l2.81-12.6c0.28-1.24,0.14-2.32-0.43-3.22c-0.56-0.9-1.5-1.54-2.83-1.91l0.38-1.7l10.17,2.14l-0.38,1.7
			c-1.45-0.15-2.56,0.05-3.33,0.59c-0.77,0.55-1.3,1.48-1.59,2.82l-4.71,21.11l-2.18-0.46l-12.4-24.95l-3.3,14.78
			c-0.38,1.69-0.25,3.01,0.37,3.95c0.62,0.94,1.53,1.54,2.71,1.78l0.47,0.1l-0.38,1.7l-11.25-2.37l0.38-1.7l0.77,0.16
			c1.1,0.23,2.13,0,3.07-0.69c0.94-0.7,1.56-1.71,1.86-3.05l3.89-17.46c-0.6-1.26-1.55-2.02-2.86-2.3l-1.24-0.26L330.24,39.31z"/>
		
			<linearGradient id="SVGID_00000142172447793036033170000001051368563693515674_" gradientUnits="userSpaceOnUse" x1="146.912" y1="83.2694" x2="471.6937" y2="83.2694" gradientTransform="matrix(1 0 0 1 -7 0)">
			<stop  offset="0" style="stop-color:#C49A6C"/>
			<stop  offset="1" style="stop-color:#603913"/>
		</linearGradient>
		<path style="fill:url(#SVGID_00000142172447793036033170000001051368563693515674_);" d="M374.09,50.27l22.64,9.89l-3.58,9.05
			l-1.54-0.68c0.6-2.24,0.84-3.94,0.72-5.09c-0.12-1.15-0.52-2.15-1.19-2.99c-0.68-0.84-1.73-1.58-3.16-2.2l-3.55-1.55
			c-0.55-0.24-1-0.31-1.34-0.2c-0.35,0.1-0.6,0.34-0.77,0.71l-4.06,8.76l1.21,0.53c1.39,0.61,2.65,0.7,3.78,0.26
			c1.13-0.44,2.16-1.48,3.09-3.14l1.58,0.69l-5.44,11.74l-1.58-0.69c0.8-1.99,0.99-3.55,0.59-4.69c-0.4-1.13-1.39-2.04-2.94-2.72
			l-1-0.43l-4.32,9.33c-0.19,0.41-0.2,0.75-0.03,1.03c0.26,0.42,0.74,0.78,1.44,1.08l3.13,1.37c2.14,0.93,4.2,1.03,6.18,0.3
			c1.97-0.74,3.75-2.38,5.32-4.92l1.58,0.69L386,85.83l-23.6-10.31l0.73-1.59l2.34,1.02c0.53,0.23,0.99,0.28,1.39,0.14
			c0.4-0.14,0.7-0.43,0.9-0.88l9-19.42c0.19-0.41,0.19-0.77,0-1.08c-0.19-0.31-0.64-0.63-1.35-0.94l-2.06-0.9L374.09,50.27z"/>
		
			<linearGradient id="SVGID_00000021099944058023630730000009093484435938375820_" gradientUnits="userSpaceOnUse" x1="146.912" y1="83.2694" x2="471.6937" y2="83.2694" gradientTransform="matrix(1 0 0 1 -7 0)">
			<stop  offset="0" style="stop-color:#C49A6C"/>
			<stop  offset="1" style="stop-color:#603913"/>
		</linearGradient>
		<path style="fill:url(#SVGID_00000021099944058023630730000009093484435938375820_);" d="M412.16,68.44l7.15,5.06l0.96,24.17
			l7.82-10.42c0.77-1.03,1.09-2.07,0.95-3.11c-0.14-1.05-0.73-2-1.79-2.86l1.06-1.41l8.41,5.95l-1.06,1.41
			c-1.26-0.71-2.36-0.97-3.29-0.77c-0.93,0.2-1.81,0.85-2.63,1.95l-13.1,17.45l-1.8-1.27L413.9,76.9l-9.18,12.22
			c-1.05,1.4-1.49,2.65-1.31,3.76c0.18,1.11,0.75,2.01,1.73,2.69l0.39,0.27l-1.06,1.41l-9.3-6.58l1.06-1.41l0.64,0.45
			c0.91,0.65,1.95,0.84,3.1,0.58c1.15-0.26,2.15-0.95,2.98-2.06l10.84-14.44c-0.03-1.38-0.58-2.46-1.66-3.22l-1.03-0.73
			L412.16,68.44z"/>
		
			<linearGradient id="SVGID_00000096744300858354664490000009639615702731577479_" gradientUnits="userSpaceOnUse" x1="146.912" y1="83.2694" x2="471.6937" y2="83.2694" gradientTransform="matrix(1 0 0 1 -7 0)">
			<stop  offset="0" style="stop-color:#C49A6C"/>
			<stop  offset="1" style="stop-color:#603913"/>
		</linearGradient>
		<path style="fill:url(#SVGID_00000096744300858354664490000009639615702731577479_);" d="M447.93,96.02l16.76,17.9l-7.59,7.53
			l-1.18-1.26c1.44-1.81,2.41-3.37,2.93-4.69c0.52-1.32,0.7-2.46,0.54-3.42c-0.16-0.96-0.58-1.8-1.26-2.52
			c-0.39-0.42-0.76-0.64-1.12-0.68c-0.36-0.04-0.7,0.09-1.03,0.39l-16.31,14.4c-0.31,0.28-0.48,0.6-0.5,0.96
			c-0.02,0.37,0.09,0.68,0.34,0.95l2.18,2.33l-1.32,1.17l-10.25-10.95l1.32-1.17l2.07,2.22c0.31,0.33,0.66,0.51,1.03,0.53
			c0.38,0.02,0.73-0.11,1.05-0.39l16.22-14.33c0.38-0.34,0.57-0.68,0.56-1.04c-0.01-0.36-0.21-0.75-0.6-1.17
			c-2.2-2.35-5.91-1.99-11.13,1.1l-1.14-1.22L447.93,96.02z"/>
	</g>
</g>
<g>
	<g>
		<path d="M174.3,373.82l1.27-1.55l12.23,9.5l-1.27,1.55l-2.06-1.6c-0.59-0.46-1.1-0.66-1.53-0.61c-0.43,0.05-0.86,0.34-1.29,0.86
			l-15.05,18.28c-0.61,0.74-0.89,1.3-0.83,1.68c0.06,0.38,0.5,0.9,1.34,1.55l3.43,2.67c1.28,0.99,2.98,1.29,5.12,0.9
			c2.14-0.39,4.63-1.73,7.48-4.02l1.45,1.13l-8.31,9l-20.96-16.28l1.27-1.55l2.1,1.63c0.46,0.36,0.91,0.51,1.35,0.45
			c0.44-0.06,0.84-0.31,1.2-0.76l15.48-18.79c0.38-0.45,0.53-0.88,0.45-1.27c-0.07-0.39-0.41-0.82-0.99-1.28L174.3,373.82z"/>
		<path d="M218.76,399.71l-2.83,30.22c-0.07,0.86,0,1.49,0.21,1.91c0.21,0.42,0.6,0.77,1.17,1.05l1,0.48l-0.91,1.77l-12.79-6.24
			l0.91-1.77l1.2,0.58c0.95,0.46,1.66,0.67,2.12,0.63c0.47-0.04,0.79-0.24,0.98-0.6c0.14-0.28,0.24-0.64,0.28-1.08l0.59-6.23
			l-10.2-4.98l-2.2,1.9c-0.92,0.79-1.5,1.43-1.75,1.91c-0.42,0.82-0.48,1.64-0.15,2.44c0.33,0.8,1,1.45,2.02,1.95l0.87,0.42
			l-0.91,1.77L188,420.79l0.91-1.77l0.59,0.29c0.67,0.33,1.36,0.4,2.09,0.21c1.03-0.26,1.99-0.77,2.87-1.53l22.23-19.3
			L218.76,399.71z M212.12,405.38l-9.91,8.58l8.69,4.24L212.12,405.38z"/>
		<path d="M235.42,408.94l11.94,2.76l-0.47,1.92l-1.12-0.26c-0.71-0.16-1.21-0.19-1.5-0.07c-0.29,0.12-0.47,0.35-0.56,0.69
			c-0.06,0.25-0.08,0.54-0.07,0.88l1.48,19.44l8.98-14.53l-0.22-2.89c-0.05-0.6-0.22-1.04-0.5-1.32c-0.37-0.38-0.92-0.65-1.64-0.82
			l-1.44-0.33l0.47-1.92l13.77,3.19l-0.47,1.92l-1.27-0.29c-0.92-0.21-1.58-0.25-1.96-0.1c-0.38,0.14-0.63,0.43-0.73,0.86
			c-0.04,0.18-0.06,0.38-0.04,0.6l1.42,19.43l8.83-14.78c0.28-0.45,0.47-0.9,0.59-1.35c0.21-0.84,0.15-1.54-0.18-2.1
			c-0.32-0.56-0.84-0.92-1.55-1.08l-0.84-0.19l0.47-1.93l9.67,2.24l-0.47,1.92c-1.08-0.22-1.99-0.16-2.75,0.18
			c-0.76,0.34-1.4,0.96-1.93,1.86l-14.69,24.38l-2.46-0.57l-1.73-23.08l-12.26,19.84l-2.44-0.57l-2.28-29.8
			c-0.04-0.62-0.19-1.08-0.45-1.38c-0.25-0.3-0.62-0.5-1.1-0.61l-0.95-0.22L235.42,408.94z"/>
		<path d="M304.31,419.35l26.81-2.32l1.3,10.78l-1.85,0.16c-0.63-3.3-1.6-5.55-2.9-6.72c-1.3-1.18-3.19-1.66-5.65-1.44l-4.5,0.39
			c-0.66,0.06-1.12,0.24-1.4,0.55c-0.28,0.31-0.39,0.73-0.34,1.25l0.96,10.49l1.64-0.14c3.26-0.28,4.97-2.45,5.1-6.51l1.81-0.16
			l1.33,14.47l-1.81,0.16c-0.2-1.55-0.56-2.75-1.08-3.61c-0.52-0.86-1.19-1.51-2.01-1.95c-0.82-0.44-1.73-0.62-2.74-0.53l-2.07,0.18
			l1.05,11.42c0.06,0.61,0.26,1.04,0.59,1.29c0.49,0.37,1.04,0.53,1.66,0.48l2.88-0.25l0.18,1.97l-16.09,1.39l-0.18-1.97l2.69-0.23
			c0.63-0.06,1.1-0.27,1.41-0.65c0.31-0.37,0.44-0.83,0.39-1.35l-2.19-23.95c-0.06-0.61-0.26-1.02-0.62-1.23
			c-0.36-0.21-1.06-0.27-2.1-0.18l-2.09,0.18L304.31,419.35z"/>
		<path d="M340.52,414.97l15.12-3.86l0.52,1.91l-2.73,0.7c-0.59,0.15-0.98,0.38-1.18,0.69c-0.2,0.31-0.24,0.7-0.11,1.16l6.38,23.57
			c0.15,0.55,0.39,0.9,0.74,1.06c0.44,0.21,1,0.23,1.68,0.06l2.43-0.62l0.52,1.91l-15.12,3.86l-0.52-1.91l2.32-0.59
			c0.8-0.2,1.32-0.48,1.57-0.84c0.25-0.36,0.31-0.8,0.16-1.34l-6.3-23.3c-0.16-0.58-0.42-0.96-0.79-1.16
			c-0.37-0.2-0.88-0.21-1.52-0.05l-2.63,0.67L340.52,414.97z"/>
		<path d="M365.57,408.28l14.42-6.57c2.34-1.07,4.4-1.63,6.17-1.68c1.78-0.05,3.29,0.29,4.53,1.04c1.24,0.74,2.17,1.77,2.81,3.08
			c1.01,2.09,0.92,4.2-0.27,6.32c-0.9,1.62-2.72,3.23-5.46,4.84c1.56-0.41,2.86-0.53,3.89-0.35c1.04,0.18,2.11,0.66,3.21,1.45
			c1.46,1.03,2.9,2.4,4.34,4.11c0.92,1.1,1.57,1.76,1.96,1.97c0.39,0.21,0.74,0.25,1.04,0.12c0.82-0.38,0.77-1.72-0.16-4.04
			l1.64-0.75c1.03,2.45,1.34,4.39,0.93,5.84c-0.41,1.45-1.44,2.55-3.1,3.31c-1.18,0.54-2.25,0.72-3.21,0.55
			c-0.96-0.17-1.86-0.66-2.7-1.45c-0.49-0.45-1.43-1.61-2.81-3.46c-1.62-2.18-2.81-3.6-3.57-4.25c-0.76-0.66-1.54-1.05-2.31-1.18
			c-0.78-0.13-1.59,0-2.45,0.39l-2.04,0.93l5.07,10.5c0.22,0.46,0.52,0.76,0.9,0.88c0.53,0.15,1.04,0.11,1.54-0.12l2.5-1.14
			l0.87,1.79l-13.99,6.38l-0.86-1.79l2.16-0.99c0.56-0.25,0.91-0.6,1.05-1.03c0.14-0.43,0.08-0.92-0.18-1.46l-10.38-21.47
			c-0.29-0.59-0.63-0.97-1.02-1.12c-0.39-0.16-0.84-0.12-1.32,0.1l-2.35,1.07L365.57,408.28z M381.6,416.74l2.33-1.07
			c2.07-0.94,3.43-2.23,4.1-3.87c0.5-1.24,0.26-2.85-0.69-4.83c-0.88-1.82-1.97-2.95-3.26-3.39c-1.29-0.44-3.02-0.16-5.2,0.83
			c-1.17,0.53-1.84,1-2.01,1.4c-0.17,0.4-0.04,1.05,0.4,1.97L381.6,416.74z"/>
		<path d="M400.45,391.79l9.5-7.56l19.27,12.23l-8.58-20.74l9.75-7.76l1.29,1.53l-2.12,1.68c-0.52,0.42-0.8,0.8-0.83,1.16
			c-0.03,0.35,0.16,0.77,0.56,1.25l15.69,18.6c0.4,0.47,0.78,0.71,1.14,0.71c0.54,0.01,1.09-0.2,1.63-0.64l1.87-1.49l1.29,1.53
			l-12.01,9.56l-1.29-1.53l2.26-1.8c0.42-0.33,0.63-0.7,0.64-1.12c0.01-0.42-0.16-0.84-0.52-1.27l-16.8-19.91l11.75,28.78
			l-1.41,1.12l-26.89-17.06l15.01,17.79c0.86,1.02,1.88,1.61,3.06,1.76c1.18,0.15,2.42-0.18,3.72-0.99l1.29,1.53l-8.76,6.97
			l-1.29-1.53c1.02-0.98,1.54-2.06,1.56-3.25c0.02-1.19-0.43-2.33-1.35-3.41l-13.28-15.73c-0.56-0.67-1.05-1.02-1.46-1.07
			c-0.41-0.04-0.93,0.19-1.57,0.7l-1.86,1.48L400.45,391.79z"/>
	</g>
	<g>
		
			<linearGradient id="SVGID_00000074426264318177660690000016813606858657774250_" gradientUnits="userSpaceOnUse" x1="162.3312" y1="409.3275" x2="457.9353" y2="409.3275" gradientTransform="matrix(1 0 0 1 -7 0)">
			<stop  offset="0" style="stop-color:#C49A6C"/>
			<stop  offset="1" style="stop-color:#603913"/>
		</linearGradient>
		<path style="fill:url(#SVGID_00000074426264318177660690000016813606858657774250_);" d="M174.3,373.82l1.27-1.55l12.23,9.5
			l-1.27,1.55l-2.06-1.6c-0.59-0.46-1.1-0.66-1.53-0.61c-0.43,0.05-0.86,0.34-1.29,0.86l-15.05,18.28c-0.61,0.74-0.89,1.3-0.83,1.68
			c0.06,0.38,0.5,0.9,1.34,1.55l3.43,2.67c1.28,0.99,2.98,1.29,5.12,0.9c2.14-0.39,4.63-1.73,7.48-4.02l1.45,1.13l-8.31,9
			l-20.96-16.28l1.27-1.55l2.1,1.63c0.46,0.36,0.91,0.51,1.35,0.45c0.44-0.06,0.84-0.31,1.2-0.76l15.48-18.79
			c0.38-0.45,0.53-0.88,0.45-1.27c-0.07-0.39-0.41-0.82-0.99-1.28L174.3,373.82z"/>
		
			<linearGradient id="SVGID_00000070106440914677742730000011241973669256837260_" gradientUnits="userSpaceOnUse" x1="162.3312" y1="409.3275" x2="457.9353" y2="409.3275" gradientTransform="matrix(1 0 0 1 -7 0)">
			<stop  offset="0" style="stop-color:#C49A6C"/>
			<stop  offset="1" style="stop-color:#603913"/>
		</linearGradient>
		<path style="fill:url(#SVGID_00000070106440914677742730000011241973669256837260_);" d="M218.76,399.71l-2.83,30.22
			c-0.07,0.86,0,1.49,0.21,1.91c0.21,0.42,0.6,0.77,1.17,1.05l1,0.48l-0.91,1.77l-12.79-6.24l0.91-1.77l1.2,0.58
			c0.95,0.46,1.66,0.67,2.12,0.63c0.47-0.04,0.79-0.24,0.98-0.6c0.14-0.28,0.24-0.64,0.28-1.08l0.59-6.23l-10.2-4.98l-2.2,1.9
			c-0.92,0.79-1.5,1.43-1.75,1.91c-0.42,0.82-0.48,1.64-0.15,2.44c0.33,0.8,1,1.45,2.02,1.95l0.87,0.42l-0.91,1.77L188,420.79
			l0.91-1.77l0.59,0.29c0.67,0.33,1.36,0.4,2.09,0.21c1.03-0.26,1.99-0.77,2.87-1.53l22.23-19.3L218.76,399.71z M212.12,405.38
			l-9.91,8.58l8.69,4.24L212.12,405.38z"/>
		
			<linearGradient id="SVGID_00000146458731228995641630000009203594490668150707_" gradientUnits="userSpaceOnUse" x1="162.3312" y1="409.3275" x2="457.9353" y2="409.3275" gradientTransform="matrix(1 0 0 1 -7 0)">
			<stop  offset="0" style="stop-color:#C49A6C"/>
			<stop  offset="1" style="stop-color:#603913"/>
		</linearGradient>
		<path style="fill:url(#SVGID_00000146458731228995641630000009203594490668150707_);" d="M235.42,408.94l11.94,2.76l-0.47,1.92
			l-1.12-0.26c-0.71-0.16-1.21-0.19-1.5-0.07c-0.29,0.12-0.47,0.35-0.56,0.69c-0.06,0.25-0.08,0.54-0.07,0.88l1.48,19.44l8.98-14.53
			l-0.22-2.89c-0.05-0.6-0.22-1.04-0.5-1.32c-0.37-0.38-0.92-0.65-1.64-0.82l-1.44-0.33l0.47-1.92l13.77,3.19l-0.47,1.92l-1.27-0.29
			c-0.92-0.21-1.58-0.25-1.96-0.1c-0.38,0.14-0.63,0.43-0.73,0.86c-0.04,0.18-0.06,0.38-0.04,0.6l1.42,19.43l8.83-14.78
			c0.28-0.45,0.47-0.9,0.59-1.35c0.21-0.84,0.15-1.54-0.18-2.1c-0.32-0.56-0.84-0.92-1.55-1.08l-0.84-0.19l0.47-1.93l9.67,2.24
			l-0.47,1.92c-1.08-0.22-1.99-0.16-2.75,0.18c-0.76,0.34-1.4,0.96-1.93,1.86l-14.69,24.38l-2.46-0.57l-1.73-23.08l-12.26,19.84
			l-2.44-0.57l-2.28-29.8c-0.04-0.62-0.19-1.08-0.45-1.38c-0.25-0.3-0.62-0.5-1.1-0.61l-0.95-0.22L235.42,408.94z"/>
		
			<linearGradient id="SVGID_00000100381967752843519370000008420216495459218340_" gradientUnits="userSpaceOnUse" x1="162.3312" y1="409.3275" x2="457.9353" y2="409.3275" gradientTransform="matrix(1 0 0 1 -7 0)">
			<stop  offset="0" style="stop-color:#C49A6C"/>
			<stop  offset="1" style="stop-color:#603913"/>
		</linearGradient>
		<path style="fill:url(#SVGID_00000100381967752843519370000008420216495459218340_);" d="M304.31,419.35l26.81-2.32l1.3,10.78
			l-1.85,0.16c-0.63-3.3-1.6-5.55-2.9-6.72c-1.3-1.18-3.19-1.66-5.65-1.44l-4.5,0.39c-0.66,0.06-1.12,0.24-1.4,0.55
			c-0.28,0.31-0.39,0.73-0.34,1.25l0.96,10.49l1.64-0.14c3.26-0.28,4.97-2.45,5.1-6.51l1.81-0.16l1.33,14.47l-1.81,0.16
			c-0.2-1.55-0.56-2.75-1.08-3.61c-0.52-0.86-1.19-1.51-2.01-1.95c-0.82-0.44-1.73-0.62-2.74-0.53l-2.07,0.18l1.05,11.42
			c0.06,0.61,0.26,1.04,0.59,1.29c0.49,0.37,1.04,0.53,1.66,0.48l2.88-0.25l0.18,1.97l-16.09,1.39l-0.18-1.97l2.69-0.23
			c0.63-0.06,1.1-0.27,1.41-0.65c0.31-0.37,0.44-0.83,0.39-1.35l-2.19-23.95c-0.06-0.61-0.26-1.02-0.62-1.23
			c-0.36-0.21-1.06-0.27-2.1-0.18l-2.09,0.18L304.31,419.35z"/>
		
			<linearGradient id="SVGID_00000183957087079644300270000017306083832292425875_" gradientUnits="userSpaceOnUse" x1="162.3312" y1="409.3275" x2="457.9353" y2="409.3275" gradientTransform="matrix(1 0 0 1 -7 0)">
			<stop  offset="0" style="stop-color:#C49A6C"/>
			<stop  offset="1" style="stop-color:#603913"/>
		</linearGradient>
		<path style="fill:url(#SVGID_00000183957087079644300270000017306083832292425875_);" d="M340.52,414.97l15.12-3.86l0.52,1.91
			l-2.73,0.7c-0.59,0.15-0.98,0.38-1.18,0.69c-0.2,0.31-0.24,0.7-0.11,1.16l6.38,23.57c0.15,0.55,0.39,0.9,0.74,1.06
			c0.44,0.21,1,0.23,1.68,0.06l2.43-0.62l0.52,1.91l-15.12,3.86l-0.52-1.91l2.32-0.59c0.8-0.2,1.32-0.48,1.57-0.84
			c0.25-0.36,0.31-0.8,0.16-1.34l-6.3-23.3c-0.16-0.58-0.42-0.96-0.79-1.16c-0.37-0.2-0.88-0.21-1.52-0.05l-2.63,0.67L340.52,414.97
			z"/>
		
			<linearGradient id="SVGID_00000152980050443066490400000005263152684137424024_" gradientUnits="userSpaceOnUse" x1="162.3312" y1="409.3275" x2="457.9353" y2="409.3275" gradientTransform="matrix(1 0 0 1 -7 0)">
			<stop  offset="0" style="stop-color:#C49A6C"/>
			<stop  offset="1" style="stop-color:#603913"/>
		</linearGradient>
		<path style="fill:url(#SVGID_00000152980050443066490400000005263152684137424024_);" d="M365.57,408.28l14.42-6.57
			c2.34-1.07,4.4-1.63,6.17-1.68c1.78-0.05,3.29,0.29,4.53,1.04c1.24,0.74,2.17,1.77,2.81,3.08c1.01,2.09,0.92,4.2-0.27,6.32
			c-0.9,1.62-2.72,3.23-5.46,4.84c1.56-0.41,2.86-0.53,3.89-0.35c1.04,0.18,2.11,0.66,3.21,1.45c1.46,1.03,2.9,2.4,4.34,4.11
			c0.92,1.1,1.57,1.76,1.96,1.97c0.39,0.21,0.74,0.25,1.04,0.12c0.82-0.38,0.77-1.72-0.16-4.04l1.64-0.75
			c1.03,2.45,1.34,4.39,0.93,5.84c-0.41,1.45-1.44,2.55-3.1,3.31c-1.18,0.54-2.25,0.72-3.21,0.55c-0.96-0.17-1.86-0.66-2.7-1.45
			c-0.49-0.45-1.43-1.61-2.81-3.46c-1.62-2.18-2.81-3.6-3.57-4.25c-0.76-0.66-1.54-1.05-2.31-1.18c-0.78-0.13-1.59,0-2.45,0.39
			l-2.04,0.93l5.07,10.5c0.22,0.46,0.52,0.76,0.9,0.88c0.53,0.15,1.04,0.11,1.54-0.12l2.5-1.14l0.87,1.79l-13.99,6.38l-0.86-1.79
			l2.16-0.99c0.56-0.25,0.91-0.6,1.05-1.03c0.14-0.43,0.08-0.92-0.18-1.46l-10.38-21.47c-0.29-0.59-0.63-0.97-1.02-1.12
			c-0.39-0.16-0.84-0.12-1.32,0.1l-2.35,1.07L365.57,408.28z M381.6,416.74l2.33-1.07c2.07-0.94,3.43-2.23,4.1-3.87
			c0.5-1.24,0.26-2.85-0.69-4.83c-0.88-1.82-1.97-2.95-3.26-3.39c-1.29-0.44-3.02-0.16-5.2,0.83c-1.17,0.53-1.84,1-2.01,1.4
			c-0.17,0.4-0.04,1.05,0.4,1.97L381.6,416.74z"/>
		
			<linearGradient id="SVGID_00000087399494695108421420000013277951936046058401_" gradientUnits="userSpaceOnUse" x1="162.3312" y1="409.3275" x2="457.9353" y2="409.3275" gradientTransform="matrix(1 0 0 1 -7 0)">
			<stop  offset="0" style="stop-color:#C49A6C"/>
			<stop  offset="1" style="stop-color:#603913"/>
		</linearGradient>
		<path style="fill:url(#SVGID_00000087399494695108421420000013277951936046058401_);" d="M400.45,391.79l9.5-7.56l19.27,12.23
			l-8.58-20.74l9.75-7.76l1.29,1.53l-2.12,1.68c-0.52,0.42-0.8,0.8-0.83,1.16c-0.03,0.35,0.16,0.77,0.56,1.25l15.69,18.6
			c0.4,0.47,0.78,0.71,1.14,0.71c0.54,0.01,1.09-0.2,1.63-0.64l1.87-1.49l1.29,1.53l-12.01,9.56l-1.29-1.53l2.26-1.8
			c0.42-0.33,0.63-0.7,0.64-1.12c0.01-0.42-0.16-0.84-0.52-1.27l-16.8-19.91l11.75,28.78l-1.41,1.12l-26.89-17.06l15.01,17.79
			c0.86,1.02,1.88,1.61,3.06,1.76c1.18,0.15,2.42-0.18,3.72-0.99l1.29,1.53l-8.76,6.97l-1.29-1.53c1.02-0.98,1.54-2.06,1.56-3.25
			c0.02-1.19-0.43-2.33-1.35-3.41l-13.28-15.73c-0.56-0.67-1.05-1.02-1.46-1.07c-0.41-0.04-0.93,0.19-1.57,0.7l-1.86,1.48
			L400.45,391.79z"/>
	</g>
</g>
<ellipse class="st24" cx="301.1" cy="243.51" rx="244.75" ry="234.74"/>
</svg>
